<?xml version="1.0" encoding="UTF-8" standalone="no"?>
<!-- Created with Inkscape (http://www.inkscape.org/) -->

<svg
   version="1.1"
   id="svg1"
   width="150"
   height="150"
   viewBox="0 0 150 150"
   sodipodi:docname="UdG_reduit_negre.svg"
   inkscape:version="1.4.4 (dcaf3e7d9e, 2026-05-05)"
   xml:space="preserve"
   xmlns:inkscape="http://www.inkscape.org/namespaces/inkscape"
   xmlns:sodipodi="http://sodipodi.sourceforge.net/DTD/sodipodi-0.dtd"
   xmlns="http://www.w3.org/2000/svg"
   xmlns:svg="http://www.w3.org/2000/svg"><defs
     id="defs1"><filter
       inkscape:label="Opacity"
       style="color-interpolation-filters:sRGB"
       id="filter1"
       x="0"
       y="0"
       width="1"
       height="1"><feColorMatrix
         values="1 0 0 0 0 0 1 0 0 0 0 0 1 0 0 0 0 0 5 -1 "
         result="colormatrix"
         id="feColorMatrix1" /><feComposite
         in2="colormatrix"
         operator="arithmetic"
         k2="0.392537"
         result="fbSourceGraphic"
         id="feComposite1"
         k1="0"
         k3="0"
         k4="0" /><feColorMatrix
         result="fbSourceGraphicAlpha"
         in="fbSourceGraphic"
         values="0 0 0 -1 0 0 0 0 -1 0 0 0 0 -1 0 0 0 0 1 0"
         id="feColorMatrix2" /><feColorMatrix
         id="feColorMatrix3"
         values="1 0 0 0 0 0 1 0 0 0 0 0 1 0 0 0 0 0 5 -1 "
         result="colormatrix"
         in="fbSourceGraphic" /><feComposite
         id="feComposite3"
         in2="colormatrix"
         operator="arithmetic"
         k2="0.392537"
         result="composite"
         k1="0"
         k3="0"
         k4="0" /></filter></defs><sodipodi:namedview
     id="namedview1"
     pagecolor="#ffffff"
     bordercolor="#000000"
     borderopacity="0.25"
     inkscape:showpageshadow="2"
     inkscape:pageopacity="0.0"
     inkscape:pagecheckerboard="0"
     inkscape:deskcolor="#d1d1d1"
     inkscape:zoom="3.15431"
     inkscape:cx="132.67561"
     inkscape:cy="85.438654"
     inkscape:window-width="1920"
     inkscape:window-height="1080"
     inkscape:window-x="0"
     inkscape:window-y="0"
     inkscape:window-maximized="0"
     inkscape:current-layer="layer-MC0"><inkscape:page
       x="0"
       y="0"
       inkscape:label="1"
       id="page1"
       width="150"
       height="150"
       margin="302.15201 95.643997 302.57333 93.333336"
       bleed="0" /></sodipodi:namedview><g
     id="layer-MC0"
     inkscape:groupmode="layer"
     inkscape:label="Capa 1"
     style="display:inline"><g
       id="g3"
       transform="translate(-75.05756,-51.009394)"><path
         id="path1"
         d="m 115.51822,128.52279 c 0,4.912 2.35333,7.71867 6.93467,7.71867 4.996,0 7.92666,-2.104 7.92666,-8.04934 v -13.292 c 0,-2.396 -1.32133,-2.84933 -4.04533,-2.932 v -1.98266 h 10.77467 v 1.98266 c -2.724,0.0827 -3.88,0.536 -3.88,2.932 v 14.2 c 0,6.976 -5.16134,10.23734 -11.188,10.23734 -7.26667,0 -11.80667,-3.26134 -11.80667,-10.27867 v -14.15867 c 0,-2.396 -1.15733,-2.84933 -3.88133,-2.932 v -1.98266 h 13.04533 v 1.98266 c -2.72533,0.0827 -3.88,0.536 -3.88,2.932 z"
         style="fill:#000000;fill-opacity:1;fill-rule:nonzero;stroke:none;stroke-width:1.33333" /><path
         id="path12"
         d="m 144.20937,127.21888 c 0,4.788 1.98266,8.708 6.028,8.708 1.692,0 3.38533,-0.62 4.45866,-1.60933 v -10.44534 c 0,-3.548 -1.69333,-5.24133 -4.58266,-5.24133 -3.63334,0 -5.904,3.50667 -5.904,8.588 m 10.48666,8.33867 c -1.56933,2.26933 -3.63333,3.79733 -6.812,3.79733 -5.44933,0 -8.71066,-4.376 -8.71066,-10.40267 0,-7.76133 4.70666,-12.468 10.77466,-12.468 2.02267,0 3.84,0.70267 4.748,1.89867 v -6.112 l -2.808,-1.772 v -1.032 l 6.688,-1.94133 h 1.11467 v 26.50266 c 0,1.40534 0.41333,1.81867 2.10533,1.984 l 1.03334,0.08 v 1.85734 l -7.22534,1.40533 h -0.908 z"
         style="fill:#000000;fill-opacity:1;fill-rule:nonzero;stroke:none;stroke-width:1.33333" /><path
         id="path14"
         d="m 180.30356,109.63361 c 4.252,0 7.38933,1.11333 9.37067,2.72267 v 6.444 h -2.228 c -1.116,-4.58267 -3.67467,-6.772 -7.34934,-6.772 -6.06933,0 -8.79333,5.532 -8.79333,11.92933 0,7.432 2.89067,13.048 9.20667,13.048 2.14666,0 3.468,-0.37333 4.74666,-1.404 v -5.656 c 0,-2.352 -1.11333,-2.80667 -3.756,-2.93067 v -1.94133 h 12.26134 v 1.94133 c -2.64267,0.124 -3.55067,0.57867 -3.55067,2.93067 v 6.52133 c -2.64267,1.86 -6.15067,2.972 -10.28,2.972 -9.04,0 -14.36667,-5.944 -14.36667,-14.28266 0,-9.61867 6.688,-15.52267 14.73867,-15.52267"
         style="fill:#000000;fill-opacity:1;fill-rule:nonzero;stroke:none;stroke-width:1.33333" /><path
         id="path20"
         d="m 150.45619,72.478678 c 0.95467,4.574667 3.43333,7.912 9.53467,7.912 h 21.16533 c 7.53333,0 12.204,6.481333 12.204,15.541333 h -2.00267 c -0.572,-5.434667 -2.95466,-8.677333 -9.34266,-8.677333 h -21.35734 c -6.48266,0 -8.77066,-3.24 -10.67733,-9.629333 -1.908,6.389333 -4.196,9.629333 -10.67733,9.629333 h -21.35734 c -6.388,0 -8.772,3.242666 -9.344,8.677333 h -2.00133 c 0,-9.06 4.672,-15.541333 12.20267,-15.541333 h 21.16666 c 6.1,0 8.58,-3.337333 9.53334,-7.912 z"
         style="fill:#000000;fill-opacity:1;fill-rule:nonzero;stroke:none;stroke-width:1.33333" /><path
         id="path21"
         d="m 149.72747,179.54011 c -0.95333,-4.576 -3.43333,-7.91467 -9.53333,-7.91467 h -21.16667 c -7.53067,0 -12.20267,-6.48266 -12.20267,-15.53866 h 2.00134 c 0.572,5.43333 2.956,8.67466 9.344,8.67466 h 21.35733 c 6.48133,0 8.76933,3.244 10.67733,9.63067 1.90667,-6.38667 4.19467,-9.63067 10.67734,-9.63067 h 21.35733 c 6.388,0 8.77067,-3.24133 9.34267,-8.67466 h 2.00266 c 0,9.056 -4.67066,15.53866 -12.204,15.53866 h -21.16533 c -6.10133,0 -8.58,3.33867 -9.53467,7.91467 z"
         style="fill:#000000;fill-opacity:1;fill-rule:nonzero;stroke:none;stroke-width:1.33333" /></g></g></svg>
