<?xml version="1.0" encoding="UTF-8" standalone="no"?>
<!-- Created with Inkscape (http://www.inkscape.org/) -->

<svg
   version="1.1"
   id="svg1"
   width="300"
   height="200"
   viewBox="0 0 300 200"
   sodipodi:docname="UdG_dues_linies_centrat_blanc.svg"
   inkscape:version="1.4.4 (dcaf3e7d9e, 2026-05-05)"
   xmlns:inkscape="http://www.inkscape.org/namespaces/inkscape"
   xmlns:sodipodi="http://sodipodi.sourceforge.net/DTD/sodipodi-0.dtd"
   xmlns="http://www.w3.org/2000/svg"
   xmlns:svg="http://www.w3.org/2000/svg">
  <defs
     id="defs1" />
  <sodipodi:namedview
     id="namedview1"
     pagecolor="#ffffff"
     bordercolor="#000000"
     borderopacity="0.25"
     inkscape:showpageshadow="2"
     inkscape:pageopacity="0.0"
     inkscape:pagecheckerboard="0"
     inkscape:deskcolor="#d1d1d1"
     inkscape:zoom="3.15431"
     inkscape:cx="137.74803"
     inkscape:cy="93.047291"
     inkscape:window-width="1920"
     inkscape:window-height="1080"
     inkscape:window-x="0"
     inkscape:window-y="0"
     inkscape:window-maximized="0"
     inkscape:current-layer="layer-MC0">
    <inkscape:page
       x="0"
       y="0"
       inkscape:label="1"
       id="page1"
       width="300"
       height="200"
       margin="302.15201 95.643997 302.57333 93.333336"
       bleed="0" />
  </sodipodi:namedview>
  <g
     id="layer-MC0"
     inkscape:groupmode="layer"
     inkscape:label="Capa 1">
    <g
       id="g21"
       transform="translate(-199.74547,-278.1638)"
       style="fill:#ffffff">
      <path
         id="path1"
         d="m 0,0 c 0,-3.684 1.765,-5.789 5.201,-5.789 3.747,0 5.945,1.578 5.945,6.037 v 9.969 c 0,1.797 -0.991,2.137 -3.034,2.199 v 1.487 h 8.081 v -1.487 c -2.043,-0.062 -2.91,-0.402 -2.91,-2.199 v -10.65 c 0,-5.232 -3.871,-7.678 -8.391,-7.678 -5.45,0 -8.855,2.446 -8.855,7.709 v 10.619 c 0,1.797 -0.868,2.137 -2.911,2.199 v 1.487 H 2.91 V 12.416 C 0.866,12.354 0,12.014 0,10.217 Z"
         style="fill:#ffffff;fill-opacity:1;fill-rule:nonzero;stroke:none"
         transform="matrix(1.3333333,0,0,-1.3333333,248.01107,358.686)" />
      <path
         id="path2"
         d="m 0,0 c 0,1.918 -0.774,2.692 -2.601,2.692 -1.455,0 -3.003,-0.587 -4.056,-1.331 V -8.36 c 0,-1.424 0.774,-1.579 2.167,-1.765 v -1.394 h -8.143 v 1.394 c 1.363,0.186 2.229,0.341 2.229,1.765 V 1.733 l -2.074,1.332 v 0.774 l 4.954,1.61 h 0.867 V 2.291 c 1.424,1.485 3.344,3.096 5.945,3.096 2.786,0 4.458,-1.518 4.458,-5.078 V -8.36 c 0,-1.424 0.836,-1.579 2.23,-1.765 v -1.394 h -8.175 v 1.394 C -0.805,-9.939 0,-9.784 0,-8.36 Z"
         style="fill:#ffffff;fill-opacity:1;fill-rule:nonzero;stroke:none"
         transform="matrix(1.3333333,0,0,-1.3333333,288.51373,353.77187)" />
      <path
         id="path3"
         d="M 0,0 C 0,1.269 0.99,2.323 2.383,2.323 3.746,2.323 4.737,1.269 4.737,0 4.737,-1.271 3.746,-2.322 2.383,-2.322 0.99,-2.322 0,-1.271 0,0 m 4.365,-17.927 c 0,-1.424 0.836,-1.579 2.229,-1.764 v -1.395 h -8.205 v 1.395 c 1.363,0.185 2.23,0.34 2.23,1.764 v 10.155 l -2.075,1.301 v 0.743 l 4.954,1.548 h 0.867 z"
         style="fill:#ffffff;fill-opacity:1;fill-rule:nonzero;stroke:none"
         transform="matrix(1.3333333,0,0,-1.3333333,301.192,341.016)" />
      <path
         id="path4"
         d="m 0,0 c -1.301,-0.497 -1.486,-0.558 -1.796,-1.239 l -6.285,-14.242 h -0.991 l -6.564,14.242 c -0.31,0.65 -0.496,0.742 -1.796,1.239 v 1.363 h 8.205 V 0 c -1.61,-0.217 -2.198,-0.373 -2.198,-1.115 0,-0.249 0.062,-0.495 0.247,-0.899 l 3.437,-8.42 3.53,8.42 c 0.155,0.434 0.217,0.65 0.217,0.899 0,0.742 -0.588,0.898 -2.168,1.115 V 1.363 H 0 Z"
         style="fill:#ffffff;fill-opacity:1;fill-rule:nonzero;stroke:none"
         transform="matrix(1.3333333,0,0,-1.3333333,334.05467,348.81813)" />
      <path
         id="path5"
         d="M 0,0 H 7.213 C 7.213,2.848 6.069,4.705 3.808,4.705 1.579,4.705 0.247,2.507 0,0 M 10.713,-0.558 V -1.58 H -0.092 c 0,-3.747 2.104,-6.254 5.387,-6.254 2.198,0 3.653,1.022 4.768,2.507 l 0.68,-0.402 c -0.774,-3.003 -3.126,-5.078 -6.749,-5.078 -4.551,0 -7.431,3.438 -7.431,8.082 0,5.48 3.345,9.134 7.741,9.134 4.21,0 6.409,-2.972 6.409,-6.967"
         style="fill:#ffffff;fill-opacity:1;fill-rule:nonzero;stroke:none"
         transform="matrix(1.3333333,0,0,-1.3333333,339.2188,355.13453)" />
      <path
         id="path6"
         d="m 0,0 c 1.764,3.778 2.692,5.017 4.675,5.017 0.557,0 0.959,-0.187 1.207,-0.404 V 1.208 H 5.201 C 3.281,1.208 1.825,0.961 0,-1.02 v -7.648 c 0,-1.486 0.742,-1.581 2.848,-1.827 v -1.394 h -8.825 v 1.394 c 1.363,0.185 2.23,0.341 2.23,1.765 V 1.363 l -2.074,1.332 v 0.774 l 4.922,1.61 H 0 Z"
         style="fill:#ffffff;fill-opacity:1;fill-rule:nonzero;stroke:none"
         transform="matrix(1.3333333,0,0,-1.3333333,364.6536,353.2784)" />
      <path
         id="path7"
         d="m 0,0 -0.185,3.995 h 1.609 c 0.589,-2.539 2.044,-4.024 4.521,-4.024 1.826,0 3.004,0.835 3.004,2.322 0,1.765 -1.239,2.383 -4.025,3.157 -3.127,0.899 -4.954,2.198 -4.954,5.139 0,3.036 2.228,5.017 5.728,5.017 2.136,0 3.901,-0.527 5.263,-1.331 V 10.56 H 9.382 c -0.465,2.259 -1.703,3.435 -3.808,3.435 -1.611,0 -2.539,-0.959 -2.539,-2.227 0,-1.519 1.021,-2.323 3.56,-3.004 3.189,-0.867 5.387,-1.951 5.387,-5.202 0,-3.065 -2.291,-5.171 -6.13,-5.171 C 3.623,-1.609 1.518,-1.113 0,0"
         style="fill:#ffffff;fill-opacity:1;fill-rule:nonzero;stroke:none"
         transform="matrix(1.3333333,0,0,-1.3333333,374.9336,367.3976)" />
      <path
         id="path8"
         d="M 0,0 C 0,1.269 0.989,2.323 2.384,2.323 3.746,2.323 4.736,1.269 4.736,0 4.736,-1.271 3.746,-2.322 2.384,-2.322 0.989,-2.322 0,-1.271 0,0 m 4.366,-17.927 c 0,-1.424 0.836,-1.579 2.229,-1.764 v -1.395 H -1.61 v 1.395 c 1.362,0.185 2.229,0.34 2.229,1.764 v 10.155 l -2.074,1.301 v 0.743 l 4.954,1.548 h 0.867 z"
         style="fill:#ffffff;fill-opacity:1;fill-rule:nonzero;stroke:none"
         transform="matrix(1.3333333,0,0,-1.3333333,396.19787,341.016)" />
      <path
         id="path9"
         d="M 0,0 H 4.551 V -1.86 H 0 v -10.433 c 0,-1.641 0.712,-2.23 2.29,-2.23 0.867,0 1.89,0.248 2.664,0.652 l 0.401,-0.962 c -1.175,-1.268 -2.877,-2.074 -5.014,-2.074 -2.478,0 -4.057,1.176 -4.057,4.027 v 11.02 h -2.229 v 1.178 c 1.733,0.899 3.406,2.352 4.83,4.334 H 0 Z"
         style="fill:#ffffff;fill-opacity:1;fill-rule:nonzero;stroke:none"
         transform="matrix(1.3333333,0,0,-1.3333333,414.776,347.00107)" />
      <path
         id="path10"
         d="M 0,0 V 5.419 L -3.623,4.024 C -4.768,3.591 -5.418,2.756 -5.418,1.58 c 0,-1.704 0.836,-2.663 2.322,-2.663 1.208,0 2.044,0.341 3.096,1.083 m 3.654,0.711 c 0,-1.237 0.403,-1.95 1.269,-1.95 0.279,0 0.96,0.063 1.424,0.185 l 0.186,-0.99 c -1.053,-1.052 -2.229,-1.61 -3.529,-1.61 -1.641,0 -2.539,1.147 -2.911,2.817 -1.084,-1.3 -2.755,-2.785 -5.108,-2.785 -2.756,0 -4.18,1.857 -4.18,4.241 0,2.848 2.198,3.839 4.272,4.552 L 0,6.936 v 1.641 c 0,2.013 -0.619,3.374 -2.662,3.374 -1.518,0 -2.261,-0.743 -2.261,-2.167 0,-0.589 0.062,-1.115 0.217,-1.765 L -7.431,7.617 c -0.588,0.402 -0.867,0.991 -0.867,1.826 0,2.695 2.632,4.119 6.194,4.119 3.808,0 5.85,-1.704 5.85,-5.667 0,-0.742 -0.092,-6.223 -0.092,-7.184"
         style="fill:#ffffff;fill-opacity:1;fill-rule:nonzero;stroke:none"
         transform="matrix(1.3333333,0,0,-1.3333333,436.1628,364.6716)" />
      <path
         id="path11"
         d="M 0,0 H 4.551 V -1.86 H 0 v -10.433 c 0,-1.641 0.712,-2.23 2.291,-2.23 0.867,0 1.89,0.248 2.663,0.652 l 0.402,-0.962 c -1.175,-1.268 -2.878,-2.074 -5.015,-2.074 -2.478,0 -4.057,1.176 -4.057,4.027 v 11.02 h -2.228 v 1.178 c 1.733,0.899 3.405,2.352 4.829,4.334 H 0 Z"
         style="fill:#ffffff;fill-opacity:1;fill-rule:nonzero;stroke:none"
         transform="matrix(1.3333333,0,0,-1.3333333,453.50387,347.00107)" />
      <path
         id="path12"
         d="m 0,0 c 0,-3.591 1.487,-6.531 4.521,-6.531 1.269,0 2.539,0.465 3.344,1.207 V 2.51 c 0,2.661 -1.27,3.931 -3.437,3.931 C 1.703,6.441 0,3.811 0,0 M 7.865,-6.254 C 6.688,-7.956 5.14,-9.102 2.756,-9.102 c -4.087,0 -6.533,3.282 -6.533,7.802 0,5.821 3.53,9.351 8.081,9.351 1.517,0 2.88,-0.527 3.561,-1.424 v 4.584 L 5.759,12.54 v 0.774 l 5.016,1.456 h 0.836 V -5.107 c 0,-1.054 0.31,-1.364 1.579,-1.488 l 0.775,-0.06 V -8.048 L 8.546,-9.102 H 7.865 Z"
         style="fill:#ffffff;fill-opacity:1;fill-rule:nonzero;stroke:none"
         transform="matrix(1.3333333,0,0,-1.3333333,259.13733,401.52387)" />
      <path
         id="path13"
         d="M 0,0 H 7.214 C 7.214,2.849 6.069,4.706 3.809,4.706 1.579,4.706 0.248,2.508 0,0 M 10.713,-0.558 V -1.58 H -0.093 c 0,-3.746 2.106,-6.254 5.388,-6.254 2.198,0 3.653,1.022 4.768,2.508 l 0.681,-0.403 c -0.774,-3.003 -3.127,-5.077 -6.75,-5.077 -4.551,0 -7.431,3.438 -7.431,8.081 0,5.481 3.344,9.135 7.741,9.135 4.211,0 6.409,-2.972 6.409,-6.968"
         style="fill:#ffffff;fill-opacity:1;fill-rule:nonzero;stroke:none"
         transform="matrix(1.3333333,0,0,-1.3333333,284.94267,399.25173)" />
      <path
         id="path14"
         d="M 0,0 C 3.189,0 5.542,-0.835 7.028,-2.042 V -6.875 H 5.357 c -0.837,3.437 -2.756,5.079 -5.512,5.079 -4.552,0 -6.595,-4.149 -6.595,-8.947 0,-5.574 2.168,-9.786 6.905,-9.786 1.61,0 2.601,0.28 3.56,1.053 v 4.242 c 0,1.764 -0.835,2.105 -2.817,2.198 v 1.456 h 9.196 v -1.456 C 8.112,-13.129 7.431,-13.47 7.431,-15.234 v -4.891 c -1.982,-1.395 -4.613,-2.229 -7.71,-2.229 -6.78,0 -10.775,4.458 -10.775,10.712 C -11.054,-4.428 -6.038,0 0,0"
         style="fill:#ffffff;fill-opacity:1;fill-rule:nonzero;stroke:none"
         transform="matrix(1.3333333,0,0,-1.3333333,326.1068,383.85333)" />
      <path
         id="path15"
         d="M 0,0 C 0,1.269 0.991,2.322 2.384,2.322 3.747,2.322 4.738,1.269 4.738,0 4.738,-1.271 3.747,-2.322 2.384,-2.322 0.991,-2.322 0,-1.271 0,0 m 4.365,-17.927 c 0,-1.425 0.836,-1.58 2.23,-1.765 v -1.395 h -8.206 v 1.395 c 1.363,0.185 2.23,0.34 2.23,1.765 v 10.154 l -2.074,1.302 v 0.742 l 4.954,1.549 h 0.866 z"
         style="fill:#ffffff;fill-opacity:1;fill-rule:nonzero;stroke:none"
         transform="matrix(1.3333333,0,0,-1.3333333,344.1524,385.13187)" />
      <path
         id="path16"
         d="m 0,0 c 1.765,3.778 2.695,5.018 4.676,5.018 0.557,0 0.96,-0.188 1.208,-0.405 V 1.207 H 5.202 C 3.283,1.207 1.828,0.961 0,-1.021 v -7.648 c 0,-1.485 0.744,-1.58 2.849,-1.826 v -1.395 h -8.824 v 1.395 c 1.362,0.185 2.229,0.341 2.229,1.766 V 1.363 l -2.075,1.331 v 0.775 l 4.924,1.609 H 0 Z"
         style="fill:#ffffff;fill-opacity:1;fill-rule:nonzero;stroke:none"
         transform="matrix(1.3333333,0,0,-1.3333333,363.8028,397.39493)" />
      <path
         id="path17"
         d="m 0,0 c 0,4.026 -1.609,7.308 -4.396,7.308 -2.571,0 -3.84,-2.602 -3.84,-6.378 0,-4.027 1.58,-7.277 4.396,-7.277 C -1.301,-6.347 0,-3.778 0,0 m -12.105,0.155 c 0,5.417 3.59,8.918 8.11,8.918 4.769,0 7.864,-3.53 7.864,-8.299 0,-5.419 -3.622,-8.917 -8.142,-8.917 -4.768,0 -7.832,3.53 -7.832,8.298"
         style="fill:#ffffff;fill-opacity:1;fill-rule:nonzero;stroke:none"
         transform="matrix(1.3333333,0,0,-1.3333333,389.8972,402.80253)" />
      <path
         id="path18"
         d="m 0,0 c 0,1.918 -0.775,2.692 -2.602,2.692 -1.454,0 -3.002,-0.587 -4.055,-1.331 v -9.72 c 0,-1.425 0.774,-1.58 2.168,-1.766 v -1.395 h -8.143 v 1.395 c 1.361,0.186 2.228,0.341 2.228,1.766 V 1.733 l -2.075,1.331 v 0.775 l 4.955,1.609 h 0.867 V 2.291 c 1.424,1.484 3.344,3.097 5.945,3.097 2.786,0 4.458,-1.52 4.458,-5.078 v -8.669 c 0,-1.425 0.836,-1.58 2.23,-1.766 v -1.395 h -8.175 v 1.395 C -0.805,-9.939 0,-9.784 0,-8.359 Z"
         style="fill:#ffffff;fill-opacity:1;fill-rule:nonzero;stroke:none"
         transform="matrix(1.3333333,0,0,-1.3333333,415.04293,397.8884)" />
      <path
         id="path19"
         d="M 0,0 V 5.419 L -3.622,4.024 C -4.768,3.591 -5.417,2.756 -5.417,1.58 c 0,-1.704 0.836,-2.663 2.321,-2.663 1.207,0 2.044,0.341 3.096,1.083 m 3.653,0.711 c 0,-1.236 0.404,-1.95 1.271,-1.95 0.279,0 0.96,0.063 1.424,0.185 L 6.533,-2.045 C 5.48,-3.097 4.304,-3.653 3.004,-3.653 c -1.641,0 -2.539,1.145 -2.91,2.816 -1.084,-1.3 -2.756,-2.785 -5.11,-2.785 -2.755,0 -4.178,1.857 -4.178,4.24 0,2.849 2.198,3.84 4.272,4.553 L 0,6.936 v 1.64 c 0,2.014 -0.618,3.374 -2.662,3.374 -1.518,0 -2.26,-0.742 -2.26,-2.166 0,-0.589 0.062,-1.115 0.217,-1.764 L -7.432,7.617 c -0.587,0.403 -0.865,0.991 -0.865,1.826 0,2.695 2.631,4.12 6.193,4.12 3.808,0 5.851,-1.705 5.851,-5.668 0,-0.743 -0.094,-6.222 -0.094,-7.184"
         style="fill:#ffffff;fill-opacity:1;fill-rule:nonzero;stroke:none"
         transform="matrix(1.3333333,0,0,-1.3333333,437.91533,408.78813)" />
      <path
         id="path20"
         d="m 0,0 c 0.716,-3.431 2.575,-5.934 7.151,-5.934 h 15.874 c 5.65,0 9.153,-4.861 9.153,-11.656 h -1.502 c -0.429,4.076 -2.216,6.508 -7.007,6.508 H 7.651 c -4.862,0 -6.578,2.43 -8.008,7.222 -1.431,-4.792 -3.147,-7.222 -8.008,-7.222 h -16.018 c -4.791,0 -6.579,-2.432 -7.008,-6.508 h -1.501 c 0,6.795 3.504,11.656 9.152,11.656 h 15.875 c 4.575,0 6.435,2.503 7.15,5.934 z"
         style="fill:#ffffff;fill-opacity:1;fill-rule:nonzero;stroke:none"
         transform="matrix(1.3333333,0,0,-1.3333333,350.22133,302.57333)" />
      <path
         id="path21"
         d="m 0,0 c -0.715,3.432 -2.575,5.936 -7.15,5.936 h -15.875 c -5.648,0 -9.152,4.862 -9.152,11.654 h 1.501 c 0.429,-4.075 2.217,-6.506 7.008,-6.506 H -7.65 c 4.861,0 6.577,-2.433 8.008,-7.223 1.43,4.79 3.146,7.223 8.008,7.223 h 16.018 c 4.791,0 6.578,2.431 7.007,6.506 h 1.502 C 32.893,10.798 29.39,5.936 23.74,5.936 H 7.866 C 3.29,5.936 1.431,3.432 0.715,0 Z"
         style="fill:#ffffff;fill-opacity:1;fill-rule:nonzero;stroke:none"
         transform="matrix(1.3333333,0,0,-1.3333333,349.26827,453.75427)" />
    </g>
  </g>
</svg>
