<?xml version="1.0" encoding="UTF-8" standalone="no"?>
<!-- Created with Inkscape (http://www.inkscape.org/) -->

<svg
   version="1.1"
   id="svg1"
   width="300"
   height="200"
   viewBox="0 0 300 200"
   sodipodi:docname="UdG_dues_linies_esq_blanc.svg"
   inkscape:version="1.4.4 (dcaf3e7d9e, 2026-05-05)"
   xmlns:inkscape="http://www.inkscape.org/namespaces/inkscape"
   xmlns:sodipodi="http://sodipodi.sourceforge.net/DTD/sodipodi-0.dtd"
   xmlns="http://www.w3.org/2000/svg"
   xmlns:svg="http://www.w3.org/2000/svg">
  <defs
     id="defs1" />
  <sodipodi:namedview
     id="namedview1"
     pagecolor="#ffffff"
     bordercolor="#000000"
     borderopacity="0.25"
     inkscape:showpageshadow="true"
     inkscape:pageopacity="0.0"
     inkscape:pagecheckerboard="false"
     inkscape:deskcolor="#d1d1d1"
     labelstyle="default"
     inkscape:clip-to-page="false"
     inkscape:lockguides="false"
     inkscape:zoom="1.1033108"
     inkscape:cx="377.50016"
     inkscape:cy="87.917203"
     inkscape:window-width="1920"
     inkscape:window-height="1043"
     inkscape:window-x="0"
     inkscape:window-y="0"
     inkscape:window-maximized="1"
     inkscape:current-layer="layer-MC0">
    <inkscape:page
       x="0"
       y="0"
       inkscape:label="1"
       id="page1"
       width="300"
       height="200"
       margin="302.15201 267.89868 302.57333 266.66666"
       bleed="0" />
  </sodipodi:namedview>
  <g
     id="layer-MC0"
     inkscape:groupmode="layer"
     inkscape:label="Capa 1"
     transform="translate(-56.035137,-6.254922)"
     style="fill:#ffffff">
    <path
       id="path1"
       d="m 104.50994,86.704854 c 0,4.902667 2.348,7.704 6.92133,7.704 4.98533,0 7.91067,-2.1 7.91067,-8.033333 V 73.110188 c 0,-2.388 -1.31867,-2.841333 -4.03734,-2.924 v -1.978667 h 10.752 v 1.978667 c -2.71866,0.08267 -3.87333,0.536 -3.87333,2.924 v 14.172 c 0,6.961333 -5.148,10.217333 -11.16267,10.217333 -7.252,0 -11.783995,-3.256 -11.783995,-10.258667 V 73.110188 c 0,-2.388 -1.153333,-2.841333 -3.872,-2.924 v -1.978667 h 13.018665 v 1.978667 c -2.72,0.08267 -3.87333,0.536 -3.87333,2.924 z"
       style="fill:#ffffff;fill-opacity:1;fill-rule:nonzero;stroke:none;stroke-width:1.33333" />
    <path
       id="path2"
       d="m 144.92914,81.802454 c 0,-2.554666 -1.02934,-3.584 -3.46133,-3.584 -1.93467,0 -3.99467,0.782667 -5.39734,1.772 v 12.934667 c 0,1.896 1.03067,2.102666 2.88534,2.349333 v 1.854667 h -10.83467 v -1.854667 c 1.81067,-0.246667 2.96533,-0.453333 2.96533,-2.349333 v -13.428 l -2.76,-1.773333 v -1.029334 l 6.59067,-2.142666 h 1.15333 v 4.202666 c 1.89467,-1.977333 4.45067,-4.12 7.91067,-4.12 3.708,0 5.93333,2.02 5.93333,6.756 v 11.534667 c 0,1.896 1.11067,2.102666 2.96533,2.349333 v 1.854667 h -10.87466 v -1.854667 c 1.852,-0.246667 2.924,-0.453333 2.924,-2.349333 z"
       style="fill:#ffffff;fill-opacity:1;fill-rule:nonzero;stroke:none;stroke-width:1.33333" />
    <path
       id="path3"
       d="m 157.58088,69.073254 c 0,-1.689333 1.31866,-3.090666 3.17066,-3.090666 1.81467,0 3.13334,1.401333 3.13334,3.090666 0,1.689334 -1.31867,3.089334 -3.13334,3.089334 -1.852,0 -3.17066,-1.4 -3.17066,-3.089334 m 5.808,23.852 c 0,1.896 1.11333,2.102666 2.96666,2.348 v 1.856 h -10.91733 v -1.856 c 1.812,-0.245334 2.96533,-0.452 2.96533,-2.348 v -13.512 l -2.75999,-1.730667 v -0.988 l 6.59199,-2.06 h 1.15334 z"
       style="fill:#ffffff;fill-opacity:1;fill-rule:nonzero;stroke:none;stroke-width:1.33333" />
    <path
       id="path4"
       d="m 190.37648,76.859794 c -1.732,0.658667 -1.97867,0.742667 -2.39067,1.646667 l -8.36266,18.950666 h -1.31867 l -8.73333,-18.950666 c -0.41334,-0.864 -0.66,-0.988 -2.38934,-1.646667 v -1.813333 h 10.91734 v 1.813333 c -2.14267,0.288 -2.92534,0.494667 -2.92534,1.482667 0,0.329333 0.0827,0.658667 0.328,1.194667 l 4.57334,11.205333 4.69733,-11.205333 c 0.20533,-0.577334 0.288,-0.865334 0.288,-1.194667 0,-0.988 -0.78133,-1.194667 -2.88267,-1.482667 v -1.813333 h 8.19867 z"
       style="fill:#ffffff;fill-opacity:1;fill-rule:nonzero;stroke:none;stroke-width:1.33333" />
    <path
       id="path5"
       d="m 195.52808,83.163124 h 9.59866 c 0,-3.790666 -1.52266,-6.262666 -4.532,-6.262666 -2.96533,0 -4.73733,2.925333 -5.06666,6.262666 m 14.25466,0.741334 v 1.358666 h -14.37733 c 0,4.985333 2.8,8.321333 7.168,8.321333 2.92533,0 4.86133,-1.358666 6.344,-3.336 l 0.90533,0.536 c -1.02933,3.996 -4.15866,6.756 -8.98,6.756 -6.056,0 -9.88799,-4.572 -9.88799,-10.753333 0,-7.290666 4.45066,-12.152 10.29999,-12.152 5.60267,0 8.528,3.954667 8.528,9.269334"
       style="fill:#ffffff;fill-opacity:1;fill-rule:nonzero;stroke:none;stroke-width:1.33333" />
    <path
       id="path6"
       d="m 220.90968,81.308994 c 2.348,-5.026666 3.58266,-6.674666 6.21866,-6.674666 0.744,0 1.27867,0.248 1.60667,0.536 v 4.532 h -0.90533 c -2.55467,0 -4.492,0.329333 -6.92,2.965333 v 10.177333 c 0,1.976 0.988,2.1 3.78933,2.429333 v 1.854667 h -11.74133 v -1.854667 c 1.81467,-0.246666 2.96667,-0.453333 2.96667,-2.349333 v -13.428 l -2.75867,-1.772 v -1.030666 l 6.54933,-2.142667 h 1.19467 z"
       style="fill:#ffffff;fill-opacity:1;fill-rule:nonzero;stroke:none;stroke-width:1.33333" />
    <path
       id="path7"
       d="m 231.16874,95.398854 -0.248,-5.314666 h 2.144 c 0.78266,3.377333 2.71866,5.354666 6.01466,5.354666 2.43067,0 3.996,-1.112 3.996,-3.089333 0,-2.348 -1.64933,-3.172 -5.35466,-4.201333 -4.164,-1.194667 -6.592,-2.925333 -6.592,-6.838667 0,-4.038666 2.964,-6.674666 7.62133,-6.674666 2.84267,0 5.18933,0.701333 7.00267,1.772 v 4.942666 h -2.10267 c -0.61733,-3.006666 -2.26267,-4.572 -5.064,-4.572 -2.144,0 -3.37867,1.276 -3.37867,2.965334 0,2.018666 1.36,3.089333 4.73734,3.996 4.244,1.153333 7.16933,2.596 7.16933,6.921333 0,4.078666 -3.04933,6.88 -8.15733,6.88 -2.96534,0 -5.768,-0.66 -7.788,-2.141334"
       style="fill:#ffffff;fill-opacity:1;fill-rule:nonzero;stroke:none;stroke-width:1.33333" />
    <path
       id="path8"
       d="m 252.38754,69.073254 c 0,-1.689333 1.32,-3.090666 3.172,-3.090666 1.81466,0 3.132,1.401333 3.132,3.090666 0,1.689334 -1.31734,3.089334 -3.132,3.089334 -1.852,0 -3.172,-1.4 -3.172,-3.089334 m 5.80933,23.852 c 0,1.896 1.11067,2.102666 2.96667,2.348 v 1.856 h -10.91733 v -1.856 c 1.81333,-0.245334 2.96666,-0.452 2.96666,-2.348 v -13.512 l -2.76,-1.730667 v -0.988 l 6.59067,-2.06 h 1.15333 z"
       style="fill:#ffffff;fill-opacity:1;fill-rule:nonzero;stroke:none;stroke-width:1.33333" />
    <path
       id="path9"
       d="m 270.92914,75.045924 h 6.05466 v 2.472 h -6.05466 v 13.884 c 0,2.182666 0.948,2.966666 3.048,2.966666 1.15333,0 2.512,-0.330666 3.54266,-0.866666 l 0.53734,1.278666 c -1.568,1.688 -3.83334,2.76 -6.67467,2.76 -3.29733,0 -5.39866,-1.565333 -5.39866,-5.355999 V 77.517924 h -2.96534 v -1.565333 c 2.30667,-1.194667 4.53334,-3.130667 6.42934,-5.766667 h 1.48133 z"
       style="fill:#ffffff;fill-opacity:1;fill-rule:nonzero;stroke:none;stroke-width:1.33333" />
    <path
       id="path10"
       d="m 292.27034,92.679394 v -7.210666 l -4.82,1.854666 c -1.524,0.577334 -2.388,1.689334 -2.388,3.253334 0,2.268 1.10933,3.544 3.088,3.544 1.60533,0 2.71867,-0.453334 4.12,-1.441334 m 4.86133,-0.946666 c 0,1.646666 0.53467,2.593333 1.69067,2.593333 0.368,0 1.276,-0.08267 1.89333,-0.245333 l 0.248,1.318666 c -1.4,1.4 -2.96667,2.141333 -4.69867,2.141333 -2.18266,0 -3.37733,-1.525333 -3.872,-3.749333 -1.44,1.730667 -3.66399,3.708 -6.79733,3.708 -3.66666,0 -5.56133,-2.472 -5.56133,-5.644 0,-3.789333 2.92667,-5.108 5.684,-6.056 l 6.552,-2.347999 v -2.184 c 0,-2.677334 -0.82534,-4.490667 -3.54133,-4.490667 -2.02134,0 -3.01067,0.988 -3.01067,2.884 0,0.782667 0.0827,1.482667 0.29067,2.348 l -3.62667,0.536 c -0.784,-0.536 -1.152,-1.318667 -1.152,-2.430667 0,-3.584 3.50133,-5.48 8.23733,-5.48 5.068,0 7.78667,2.266667 7.78667,7.54 0,0.989334 -0.12267,8.28 -0.12267,9.558667"
       style="fill:#ffffff;fill-opacity:1;fill-rule:nonzero;stroke:none;stroke-width:1.33333" />
    <path
       id="path11"
       d="m 309.57501,75.045924 h 6.05733 v 2.472 h -6.05733 v 13.884 c 0,2.182666 0.94933,2.966666 3.04933,2.966666 1.15333,0 2.51333,-0.330666 3.54133,-0.866666 l 0.54,1.278666 c -1.568,1.688 -3.83333,2.76 -6.67733,2.76 -3.29466,0 -5.396,-1.565333 -5.396,-5.355999 V 77.517924 h -2.96666 v -1.565333 c 2.30666,-1.194667 4.532,-3.130667 6.428,-5.766667 h 1.48133 z"
       style="fill:#ffffff;fill-opacity:1;fill-rule:nonzero;stroke:none;stroke-width:1.33333" />
    <path
       id="path12"
       d="m 101.46168,129.45352 c 0,4.77867 1.97733,8.69334 6.01466,8.69334 1.68934,0 3.37867,-0.62 4.44934,-1.608 v -10.42267 c 0,-3.54267 -1.68934,-5.232 -4.572,-5.232 -3.62667,0 -5.892,3.50133 -5.892,8.56933 m 10.464,8.32134 c -1.56667,2.26533 -3.62667,3.78933 -6.79734,3.78933 -5.438662,0 -8.693328,-4.36533 -8.693328,-10.38133 0,-7.74534 4.695998,-12.44134 10.753328,-12.44134 2.01867,0 3.832,0.7 4.73734,1.896 v -6.09866 l -2.8,-1.77067 v -1.02933 l 6.672,-1.936 h 1.112 v 26.448 c 0,1.4 0.41333,1.812 2.10133,1.97733 l 1.03067,0.0827 v 1.852 l -7.20934,1.40133 h -0.90666 z"
       style="fill:#ffffff;fill-opacity:1;fill-rule:nonzero;stroke:none;stroke-width:1.33333" />
    <path
       id="path13"
       d="m 127.21234,127.18792 h 9.6 c 0,-3.792 -1.52534,-6.26266 -4.532,-6.26266 -2.96667,0 -4.73734,2.924 -5.068,6.26266 m 14.25466,0.74134 v 1.35866 h -14.37866 c 0,4.98534 2.80266,8.32134 7.16933,8.32134 2.924,0 4.86133,-1.35867 6.344,-3.336 l 0.908,0.536 c -1.03067,3.996 -4.16267,6.75466 -8.98267,6.75466 -6.056,0 -9.88666,-4.57066 -9.88666,-10.75066 0,-7.292 4.448,-12.15334 10.29866,-12.15334 5.604,0 8.528,3.95334 8.528,9.26934"
       style="fill:#ffffff;fill-opacity:1;fill-rule:nonzero;stroke:none;stroke-width:1.33333" />
    <path
       id="path14"
       d="m 168.29114,111.82205 c 4.24266,0 7.37333,1.11067 9.352,2.71734 v 6.42666 h -2.22534 c -1.112,-4.572 -3.66533,-6.756 -7.332,-6.756 -6.05733,0 -8.77466,5.52134 -8.77466,11.90667 0,7.41467 2.88267,13.01733 9.18533,13.01733 2.14267,0 3.46133,-0.36933 4.73867,-1.39866 v -5.64534 c 0,-2.34933 -1.112,-2.80133 -3.74934,-2.924 v -1.93733 h 12.236 v 1.93733 c -2.63733,0.12267 -3.544,0.57467 -3.544,2.924 v 6.50934 c -2.636,1.85466 -6.13733,2.96533 -10.25733,2.96533 -9.02133,0 -14.336,-5.93333 -14.336,-14.25467 0,-9.59866 6.67334,-15.488 14.70667,-15.488"
       style="fill:#ffffff;fill-opacity:1;fill-rule:nonzero;stroke:none;stroke-width:1.33333" />
    <path
       id="path15"
       d="m 186.29768,113.09805 c 0,-1.68933 1.31866,-3.08933 3.17333,-3.08933 1.812,0 3.13067,1.4 3.13067,3.08933 0,1.68934 -1.31867,3.08934 -3.13067,3.08934 -1.85467,0 -3.17333,-1.4 -3.17333,-3.08934 m 5.80933,23.85334 c 0,1.89466 1.11333,2.10133 2.96533,2.34666 v 1.85467 h -10.91599 v -1.85467 c 1.81333,-0.24533 2.96533,-0.452 2.96533,-2.34666 v -13.51334 l -2.75867,-1.73066 v -0.988 l 6.59067,-2.06 h 1.15333 z"
       style="fill:#ffffff;fill-opacity:1;fill-rule:nonzero;stroke:none;stroke-width:1.33333" />
    <path
       id="path16"
       d="m 205.90968,125.33379 c 2.35066,-5.02666 3.58266,-6.67466 6.22,-6.67466 0.74266,0 1.27733,0.248 1.60666,0.536 v 4.532 h -0.90666 c -2.55467,0 -4.48934,0.328 -6.92,2.96533 v 10.176 c 0,1.97733 0.988,2.10267 3.79066,2.43067 v 1.85333 h -11.74133 v -1.85333 c 1.81334,-0.24667 2.96667,-0.45334 2.96667,-2.348 v -13.42934 l -2.76,-1.772 v -1.03066 l 6.54933,-2.14134 h 1.19467 z"
       style="fill:#ffffff;fill-opacity:1;fill-rule:nonzero;stroke:none;stroke-width:1.33333" />
    <path
       id="path17"
       d="m 231.94741,130.72952 c 0,-5.356 -2.14133,-9.72133 -5.84933,-9.72133 -3.41867,0 -5.10667,3.46133 -5.10667,8.48533 0,5.356 2.09733,9.68267 5.84933,9.68267 3.37734,0 5.10667,-3.41867 5.10667,-8.44667 m -16.10667,-0.20533 c 0,-7.20933 4.77867,-11.86533 10.79334,-11.86533 6.34399,0 10.46399,4.69733 10.46399,11.04133 0,7.20933 -4.82,11.864 -10.83333,11.864 -6.34533,0 -10.424,-4.696 -10.424,-11.04"
       style="fill:#ffffff;fill-opacity:1;fill-rule:nonzero;stroke:none;stroke-width:1.33333" />
    <path
       id="path18"
       d="m 257.04114,125.82725 c 0,-2.55333 -1.02934,-3.584 -3.46133,-3.584 -1.93467,0 -3.99467,0.78134 -5.39734,1.772 v 12.936 c 0,1.89467 1.03067,2.10134 2.88534,2.348 v 1.85334 h -10.83467 v -1.85334 c 1.81067,-0.24666 2.964,-0.45333 2.964,-2.348 v -13.42933 l -2.76,-1.77333 v -1.02934 l 6.592,-2.14266 h 1.15333 v 4.20266 c 1.89467,-1.97733 4.45067,-4.12 7.91067,-4.12 3.708,0 5.932,2.02 5.932,6.756 v 11.536 c 0,1.89467 1.112,2.10134 2.96666,2.348 v 1.85334 h -10.87466 v -1.85334 c 1.852,-0.24666 2.924,-0.45333 2.924,-2.348 z"
       style="fill:#ffffff;fill-opacity:1;fill-rule:nonzero;stroke:none;stroke-width:1.33333" />
    <path
       id="path19"
       d="m 279.86794,136.70352 v -7.20933 l -4.81867,1.85333 c -1.52533,0.57734 -2.39066,1.68934 -2.39066,3.25467 0,2.26667 1.112,3.544 3.08933,3.544 1.60667,0 2.71867,-0.45467 4.12,-1.44267 m 4.86133,-0.94666 c 0,1.64666 0.536,2.59333 1.68933,2.59333 0.36934,0 1.276,-0.0813 1.896,-0.24533 l 0.24534,1.31866 c -1.39867,1.40134 -2.964,2.14134 -4.696,2.14134 -2.184,0 -3.37734,-1.524 -3.872,-3.748 -1.44267,1.72933 -3.66667,3.70666 -6.79867,3.70666 -3.66666,0 -5.56133,-2.47066 -5.56133,-5.644 0,-3.78933 2.92533,-5.108 5.68533,-6.05466 l 6.55067,-2.34934 v -2.18266 c 0,-2.67867 -0.824,-4.49067 -3.54267,-4.49067 -2.01866,0 -3.008,0.98667 -3.008,2.884 0,0.78267 0.0827,1.48267 0.28934,2.34667 l -3.62534,0.536 c -0.784,-0.536 -1.15333,-1.31867 -1.15333,-2.43067 0,-3.584 3.50267,-5.47867 8.23867,-5.47867 5.06666,0 7.78666,2.26534 7.78666,7.53867 0,0.98933 -0.124,8.28133 -0.124,9.55867"
       style="fill:#ffffff;fill-opacity:1;fill-rule:nonzero;stroke:none;stroke-width:1.33333" />
    <path
       id="path20"
       d="m 139.91941,30.664454 c 0.952,4.566667 3.42533,7.896 9.51466,7.896 h 21.12267 c 7.51467,0 12.17867,6.469333 12.17867,15.509333 h -1.99867 c -0.57067,-5.424 -2.95067,-8.658666 -9.32533,-8.658666 h -21.312 c -6.468,0 -8.75334,-3.234667 -10.656,-9.609334 -1.90267,6.374667 -4.18667,9.609334 -10.656,9.609334 h -21.31067 c -6.376,0 -8.753331,3.234666 -9.325331,8.658666 h -1.996 c 0,-9.04 4.661331,-15.509333 12.178671,-15.509333 h 21.12 c 6.08933,0 8.56133,-3.329333 9.51333,-7.896 z"
       style="fill:#ffffff;fill-opacity:1;fill-rule:nonzero;stroke:none;stroke-width:1.33333" />
    <path
       id="path21"
       d="m 138.94541,181.84539 c -0.952,-4.568 -3.424,-7.89866 -9.51333,-7.89866 h -21.12134 c -7.516,0 -12.178664,-6.468 -12.178664,-15.50667 h 1.997333 c 0.570667,5.42267 2.949331,8.65733 9.325331,8.65733 h 21.31067 c 6.46933,0 8.752,3.236 10.656,9.60934 1.90266,-6.37334 4.18666,-9.60934 10.656,-9.60934 h 21.312 c 6.37466,0 8.75333,-3.23466 9.324,-8.65733 h 1.99866 c 0,9.03867 -4.66266,15.50667 -12.17866,15.50667 h -21.12134 c -6.08933,0 -8.564,3.33066 -9.516,7.89866 z"
       style="fill:#ffffff;fill-opacity:1;fill-rule:nonzero;stroke:none;stroke-width:1.33333" />
  </g>
</svg>
