<?xml version="1.0" encoding="utf-8" standalone="no"?>
<!DOCTYPE svg PUBLIC "-//W3C//DTD SVG 1.1//EN"
  "http://www.w3.org/Graphics/SVG/1.1/DTD/svg11.dtd">
<svg xmlns:xlink="http://www.w3.org/1999/xlink" width="996.230625pt" height="353.267287pt" viewBox="0 0 996.230625 353.267287" xmlns="http://www.w3.org/2000/svg" version="1.1">
 <metadata>
  <rdf:RDF xmlns:dc="http://purl.org/dc/elements/1.1/" xmlns:cc="http://creativecommons.org/ns#" xmlns:rdf="http://www.w3.org/1999/02/22-rdf-syntax-ns#">
   <cc:Work>
    <dc:type rdf:resource="http://purl.org/dc/dcmitype/StillImage"/>
    <dc:date>2026-05-06T10:07:34.011633</dc:date>
    <dc:format>image/svg+xml</dc:format>
    <dc:creator>
     <cc:Agent>
      <dc:title>Matplotlib v3.10.8, https://matplotlib.org/</dc:title>
     </cc:Agent>
    </dc:creator>
   </cc:Work>
  </rdf:RDF>
 </metadata>
 <defs>
  <style type="text/css">*{stroke-linejoin: round; stroke-linecap: butt}</style>
 </defs>
 <g id="figure_1">
  <g id="patch_1">
   <path d="M 0 353.267287 
L 996.230625 353.267287 
L 996.230625 0 
L 0 0 
z
" style="fill: #ffffff"/>
  </g>
  <g id="axes_1">
   <g id="patch_2">
    <path d="M 33.570625 316.220805 
L 321.950625 316.220805 
L 321.950625 54.24 
L 33.570625 54.24 
z
" style="fill: #ffffff"/>
   </g>
   <g id="matplotlib.axis_1">
    <g id="xtick_1">
     <g id="line2d_1">
      <defs>
       <path id="m9fdcd78534" d="M 0 0 
L 0 3.5 
" style="stroke: #000000; stroke-width: 0.8"/>
      </defs>
      <g>
       <use xlink:href="#m9fdcd78534" x="62.408625" y="316.220805" style="stroke: #000000; stroke-width: 0.8"/>
      </g>
     </g>
     <g id="text_1">
      <!-- SVM RBF -->
      <g transform="translate(40.660212 343.356054) rotate(-15) scale(0.12 -0.12)">
       <defs>
        <path id="LinLibertine-53" d="M 2525 4038 
Q 2613 3597 2641 3213 
Q 2594 3178 2431 3175 
Q 2400 3275 2370 3354 
Q 2341 3434 2297 3521 
Q 2253 3609 2201 3675 
Q 2150 3741 2078 3803 
Q 2006 3866 1922 3906 
Q 1838 3947 1727 3970 
Q 1616 3994 1484 3994 
Q 1206 3994 995 3772 
Q 784 3550 784 3278 
Q 784 3128 853 2995 
Q 922 2863 1015 2773 
Q 1109 2684 1261 2596 
Q 1413 2509 1516 2467 
Q 1619 2425 1772 2365 
Q 1925 2306 1966 2291 
Q 2153 2209 2298 2117 
Q 2444 2025 2573 1892 
Q 2703 1759 2772 1578 
Q 2841 1397 2841 1178 
Q 2841 875 2678 597 
Q 2516 319 2241 147 
Q 1903 -63 1450 -63 
Q 1147 -63 814 10 
Q 481 84 300 84 
Q 203 488 172 1056 
Q 272 1109 381 1075 
Q 581 166 1503 166 
Q 1888 166 2095 367 
Q 2303 569 2303 953 
Q 2303 1128 2248 1273 
Q 2194 1419 2123 1508 
Q 2053 1597 1923 1680 
Q 1794 1763 1708 1800 
Q 1622 1838 1464 1898 
Q 1306 1959 1250 1984 
Q 972 2106 784 2239 
Q 597 2372 461 2597 
Q 325 2822 325 3103 
Q 325 3597 683 3905 
Q 1041 4213 1544 4213 
Q 1909 4213 2173 4131 
Q 2438 4050 2525 4038 
z
" transform="scale(0.015625)"/>
        <path id="LinLibertine-56" d="M 2869 3928 
Q 2844 3953 2842 4031 
Q 2841 4109 2869 4141 
Q 3472 4128 3566 4128 
Q 3616 4128 4128 4141 
Q 4159 4109 4159 4032 
Q 4159 3956 4128 3928 
Q 4006 3913 3911 3870 
Q 3816 3828 3761 3789 
Q 3706 3750 3650 3654 
Q 3594 3559 3573 3512 
Q 3553 3466 3500 3334 
L 2175 72 
Q 2119 -75 2022 -78 
Q 1931 -78 1875 72 
L 613 3347 
Q 466 3722 383 3814 
Q 300 3906 38 3928 
Q 6 3959 6 4034 
Q 6 4109 31 4141 
Q 634 4128 697 4128 
Q 869 4128 1472 4141 
Q 1497 4109 1497 4032 
Q 1497 3956 1472 3928 
Q 1150 3894 1090 3798 
Q 1031 3703 1147 3419 
L 2166 813 
L 2197 813 
L 3206 3378 
Q 3328 3641 3264 3772 
Q 3200 3903 2869 3928 
z
" transform="scale(0.015625)"/>
        <path id="LinLibertine-4d" d="M 4241 744 
L 4078 3419 
L 4063 3419 
L 2625 31 
Q 2588 -41 2534 -38 
Q 2463 -38 2438 31 
L 1113 3353 
L 1100 3353 
L 856 788 
Q 831 488 907 356 
Q 984 225 1281 197 
Q 1306 166 1306 89 
Q 1306 13 1281 -13 
Q 897 0 678 0 
Q 513 0 128 -13 
Q 103 13 103 89 
Q 103 166 128 197 
Q 391 219 484 344 
Q 578 469 606 775 
L 863 3413 
Q 894 3766 831 3837 
Q 769 3909 428 3928 
Q 397 3953 397 4031 
Q 397 4109 428 4141 
L 1356 4128 
L 2669 878 
Q 2706 794 2719 794 
Q 2738 794 2778 884 
L 4134 4128 
L 4972 4141 
Q 5003 4109 5004 4032 
Q 5006 3956 4972 3928 
Q 4656 3909 4584 3825 
Q 4513 3741 4534 3469 
L 4725 775 
Q 4734 622 4742 547 
Q 4750 472 4773 395 
Q 4797 319 4820 292 
Q 4844 266 4905 241 
Q 4966 216 5030 209 
Q 5094 203 5216 197 
Q 5247 166 5247 89 
Q 5247 13 5216 -13 
Q 4794 0 4519 0 
Q 4434 0 3834 -13 
Q 3803 13 3803 89 
Q 3803 166 3834 197 
Q 3959 203 4012 208 
Q 4066 213 4128 234 
Q 4191 256 4208 281 
Q 4225 306 4240 376 
Q 4256 447 4253 522 
Q 4250 597 4241 744 
z
" transform="scale(0.015625)"/>
        <path id="LinLibertine-20" transform="scale(0.015625)"/>
        <path id="LinLibertine-52" d="M 1741 3956 
Q 1209 3956 1209 3547 
L 1209 2081 
L 1516 2081 
Q 2034 2081 2312 2292 
Q 2591 2503 2591 3059 
Q 2591 3956 1741 3956 
z
M 1209 781 
Q 1209 397 1309 305 
Q 1409 213 1766 197 
Q 1791 166 1791 89 
Q 1791 13 1766 -13 
Q 1125 0 941 0 
Q 734 0 109 -13 
Q 78 13 78 89 
Q 78 166 109 197 
Q 469 209 567 303 
Q 666 397 666 781 
L 666 3347 
Q 666 3731 567 3823 
Q 469 3916 109 3928 
Q 78 3953 78 4031 
Q 78 4109 109 4141 
Q 750 4128 934 4128 
Q 1069 4128 1366 4150 
Q 1663 4172 1734 4172 
Q 2113 4172 2375 4114 
Q 2638 4056 2841 3866 
Q 3181 3547 3181 3066 
Q 3181 2625 2903 2347 
Q 2625 2069 2328 1972 
L 3138 628 
Q 3284 384 3418 259 
Q 3553 134 3750 134 
Q 3794 50 3756 -19 
Q 3666 -63 3488 -63 
Q 2994 -63 2644 506 
L 1959 1619 
Q 1881 1747 1731 1805 
Q 1581 1863 1209 1863 
L 1209 781 
z
" transform="scale(0.015625)"/>
        <path id="LinLibertine-42" d="M 1222 3647 
L 1222 2344 
L 1697 2344 
Q 2606 2344 2606 3078 
Q 2606 3519 2356 3720 
Q 2106 3922 1778 3922 
Q 1503 3922 1386 3894 
Q 1269 3866 1245 3817 
Q 1222 3769 1222 3647 
z
M 1222 2125 
L 1222 628 
Q 1222 200 1753 197 
Q 2425 197 2665 425 
Q 2906 653 2906 1056 
Q 2906 1525 2595 1825 
Q 2284 2125 1663 2125 
L 1222 2125 
z
M 947 4128 
Q 1088 4128 1363 4134 
Q 1638 4141 1747 4141 
Q 3122 4141 3122 3156 
Q 3122 2906 2947 2675 
Q 2772 2444 2516 2316 
L 2516 2303 
Q 2963 2175 3231 1894 
Q 3500 1613 3500 1178 
Q 3500 953 3423 754 
Q 3347 556 3175 376 
Q 3003 197 2673 92 
Q 2344 -13 1888 -13 
Q 1569 -13 1312 -6 
Q 1056 0 953 0 
Q 747 0 122 -13 
Q 91 13 91 89 
Q 91 166 122 197 
Q 481 209 579 303 
Q 678 397 678 781 
L 678 3347 
Q 678 3731 579 3823 
Q 481 3916 122 3928 
Q 91 3953 91 4031 
Q 91 4109 122 4141 
Q 763 4128 947 4128 
z
" transform="scale(0.015625)"/>
        <path id="LinLibertine-46" d="M 1759 2069 
L 1166 2069 
L 1166 781 
Q 1166 397 1264 305 
Q 1363 213 1722 197 
Q 1753 166 1753 89 
Q 1753 13 1722 -13 
Q 1081 0 897 0 
Q 691 0 63 -13 
Q 38 13 38 89 
Q 38 166 63 197 
Q 422 209 522 303 
Q 622 397 622 781 
L 622 3347 
Q 622 3731 522 3823 
Q 422 3916 63 3928 
Q 38 3953 38 4031 
Q 38 4109 63 4141 
L 891 4128 
L 2525 4128 
Q 2694 4128 2825 4153 
Q 2847 4153 2850 4134 
Q 2919 3766 2988 3206 
Q 2903 3175 2791 3175 
Q 2713 3425 2623 3559 
Q 2534 3694 2336 3783 
Q 2138 3872 1813 3872 
L 1394 3872 
Q 1163 3872 1166 3653 
L 1166 2309 
L 1759 2309 
Q 2150 2309 2239 2386 
Q 2328 2463 2344 2747 
Q 2369 2778 2445 2778 
Q 2522 2778 2553 2747 
Q 2541 2363 2541 2194 
Q 2541 2078 2553 1631 
Q 2522 1600 2445 1600 
Q 2369 1600 2344 1631 
Q 2331 1803 2304 1878 
Q 2278 1953 2150 2011 
Q 2022 2069 1759 2069 
z
" transform="scale(0.015625)"/>
       </defs>
       <use xlink:href="#LinLibertine-53"/>
       <use xlink:href="#LinLibertine-56" transform="translate(48.486328 0)"/>
       <use xlink:href="#LinLibertine-4d" transform="translate(113.671875 0)"/>
       <use xlink:href="#LinLibertine-20" transform="translate(197.558594 0)"/>
       <use xlink:href="#LinLibertine-52" transform="translate(222.558594 0)"/>
       <use xlink:href="#LinLibertine-42" transform="translate(281.25 0)"/>
       <use xlink:href="#LinLibertine-46" transform="translate(340.039062 0)"/>
      </g>
     </g>
    </g>
    <g id="xtick_2">
     <g id="line2d_2">
      <g>
       <use xlink:href="#m9fdcd78534" x="120.084625" y="316.220805" style="stroke: #000000; stroke-width: 0.8"/>
      </g>
     </g>
     <g id="text_2">
      <!-- SVM Lin -->
      <g transform="translate(100.147323 342.385483) rotate(-15) scale(0.12 -0.12)">
       <defs>
        <path id="LinLibertine-4c" d="M 941 0 
Q 422 -6 109 -13 
Q 78 13 78 89 
Q 78 166 109 197 
Q 469 209 567 303 
Q 666 397 666 781 
L 666 3347 
Q 666 3731 567 3823 
Q 469 3916 109 3928 
Q 78 3953 78 4031 
Q 78 4109 109 4141 
Q 750 4128 934 4128 
Q 1141 4128 1766 4141 
Q 1791 4109 1791 4032 
Q 1791 3956 1766 3928 
Q 1406 3916 1307 3823 
Q 1209 3731 1209 3347 
L 1209 569 
Q 1209 422 1289 336 
Q 1369 250 1509 250 
L 1978 250 
Q 2447 250 2680 470 
Q 2913 691 3022 1088 
Q 3131 1106 3231 1056 
Q 3169 500 3066 -13 
Q 2475 0 2303 0 
L 941 0 
z
" transform="scale(0.015625)"/>
        <path id="LinLibertine-69" d="M 575 3834 
Q 575 3950 684 4045 
Q 794 4141 909 4141 
Q 1031 4141 1123 4034 
Q 1216 3928 1216 3809 
Q 1216 3700 1114 3600 
Q 1013 3500 884 3500 
Q 769 3500 672 3606 
Q 575 3713 575 3834 
z
M 1159 781 
Q 1159 397 1236 308 
Q 1313 219 1619 197 
Q 1650 166 1650 89 
Q 1650 13 1619 -13 
Q 1069 0 909 0 
Q 731 0 191 -13 
Q 166 13 166 89 
Q 166 166 191 197 
Q 497 222 575 309 
Q 653 397 653 781 
L 653 2028 
Q 653 2297 579 2367 
Q 506 2438 238 2463 
Q 200 2572 225 2644 
Q 819 2722 1100 2828 
Q 1184 2828 1184 2784 
Q 1184 2769 1181 2739 
Q 1178 2709 1175 2620 
Q 1172 2531 1167 2448 
Q 1163 2366 1161 2256 
Q 1159 2147 1159 2056 
L 1159 781 
z
" transform="scale(0.015625)"/>
        <path id="LinLibertine-6e" d="M 1178 2291 
Q 1647 2809 2228 2809 
Q 2594 2809 2759 2591 
Q 2931 2359 2931 1734 
L 2931 781 
Q 2931 403 3004 314 
Q 3078 225 3359 197 
Q 3384 172 3384 95 
Q 3384 19 3359 -13 
Q 2809 0 2681 0 
Q 2566 0 2028 -13 
Q 2003 13 2003 89 
Q 2003 166 2028 197 
Q 2291 222 2358 312 
Q 2425 403 2425 781 
L 2425 1753 
Q 2425 2094 2350 2247 
Q 2228 2478 2009 2478 
Q 1619 2478 1228 2100 
Q 1119 1978 1119 1831 
L 1119 781 
Q 1119 403 1183 314 
Q 1247 225 1503 197 
Q 1534 166 1536 89 
Q 1538 13 1503 -13 
Q 966 0 872 0 
Q 694 0 166 -13 
Q 141 13 141 89 
Q 141 166 166 197 
Q 466 222 541 309 
Q 616 397 616 781 
L 616 2028 
Q 616 2297 542 2367 
Q 469 2438 197 2463 
Q 159 2572 184 2644 
Q 684 2706 991 2828 
Q 1041 2828 1069 2778 
Q 1119 2663 1119 2291 
Q 1122 2213 1178 2291 
z
" transform="scale(0.015625)"/>
       </defs>
       <use xlink:href="#LinLibertine-53"/>
       <use xlink:href="#LinLibertine-56" transform="translate(48.486328 0)"/>
       <use xlink:href="#LinLibertine-4d" transform="translate(113.671875 0)"/>
       <use xlink:href="#LinLibertine-20" transform="translate(197.558594 0)"/>
       <use xlink:href="#LinLibertine-4c" transform="translate(222.558594 0)"/>
       <use xlink:href="#LinLibertine-69" transform="translate(275.146484 0)"/>
       <use xlink:href="#LinLibertine-6e" transform="translate(302.246094 0)"/>
      </g>
     </g>
    </g>
    <g id="xtick_3">
     <g id="line2d_3">
      <g>
       <use xlink:href="#m9fdcd78534" x="177.760625" y="316.220805" style="stroke: #000000; stroke-width: 0.8"/>
      </g>
     </g>
     <g id="text_3">
      <!-- RF -->
      <g transform="translate(172.318549 334.617514) rotate(-15) scale(0.12 -0.12)">
       <use xlink:href="#LinLibertine-52"/>
       <use xlink:href="#LinLibertine-46" transform="translate(58.691406 0)"/>
      </g>
     </g>
    </g>
    <g id="xtick_4">
     <g id="line2d_4">
      <g>
       <use xlink:href="#m9fdcd78534" x="235.436625" y="316.220805" style="stroke: #000000; stroke-width: 0.8"/>
      </g>
     </g>
     <g id="text_4">
      <!-- GB -->
      <g transform="translate(228.723149 335.298856) rotate(-15) scale(0.12 -0.12)">
       <defs>
        <path id="LinLibertine-47" d="M 2413 4213 
Q 2853 4213 3261 4067 
Q 3669 3922 3809 3922 
Q 3866 3319 3950 2938 
L 3731 2900 
Q 3584 3394 3270 3684 
Q 2956 3975 2322 3975 
Q 1663 3975 1225 3450 
Q 788 2925 788 2094 
Q 788 1769 903 1434 
Q 1019 1100 1230 812 
Q 1441 525 1780 345 
Q 2119 166 2528 166 
Q 3131 166 3456 475 
L 3456 1428 
Q 3456 1606 3343 1657 
Q 3231 1709 2931 1734 
Q 2906 1766 2906 1848 
Q 2906 1931 2931 1966 
Q 3534 1953 3725 1953 
Q 3909 1953 4294 1966 
Q 4325 1934 4325 1850 
Q 4325 1766 4294 1734 
Q 4141 1722 4070 1655 
Q 4000 1588 4000 1428 
L 4000 709 
Q 4000 613 4103 531 
Q 3406 -63 2381 -63 
Q 1434 -63 820 528 
Q 206 1119 206 1966 
Q 206 2644 531 3166 
Q 856 3688 1353 3950 
Q 1850 4213 2413 4213 
z
" transform="scale(0.015625)"/>
       </defs>
       <use xlink:href="#LinLibertine-47"/>
       <use xlink:href="#LinLibertine-42" transform="translate(69.482422 0)"/>
      </g>
     </g>
    </g>
    <g id="xtick_5">
     <g id="line2d_5">
      <g>
       <use xlink:href="#m9fdcd78534" x="293.112625" y="316.220805" style="stroke: #000000; stroke-width: 0.8"/>
      </g>
     </g>
     <g id="text_5">
      <!-- LR -->
      <g transform="translate(287.384394 334.770865) rotate(-15) scale(0.12 -0.12)">
       <use xlink:href="#LinLibertine-4c"/>
       <use xlink:href="#LinLibertine-52" transform="translate(52.587891 0)"/>
      </g>
     </g>
    </g>
   </g>
   <g id="matplotlib.axis_2">
    <g id="ytick_1">
     <g id="line2d_6">
      <path d="M 33.570625 275.114591 
L 321.950625 275.114591 
" clip-path="url(#pdf334e7fba)" style="fill: none; stroke: #b0b0b0; stroke-opacity: 0.3; stroke-width: 0.8; stroke-linecap: square"/>
     </g>
     <g id="line2d_7">
      <defs>
       <path id="m9b54281444" d="M 0 0 
L -3.5 0 
" style="stroke: #000000; stroke-width: 0.8"/>
      </defs>
      <g>
       <use xlink:href="#m9b54281444" x="33.570625" y="275.114591" style="stroke: #000000; stroke-width: 0.8"/>
      </g>
     </g>
     <g id="text_6">
      <!-- 0.96 -->
      <g transform="translate(7.2 279.304278) scale(0.12 -0.12)">
       <defs>
        <path id="LinLibertine-30" d="M 1484 3681 
Q 1363 3681 1255 3603 
Q 1147 3525 1040 3340 
Q 934 3156 870 2762 
Q 806 2369 806 1813 
Q 806 163 1466 159 
Q 1522 159 1586 178 
Q 1650 197 1737 251 
Q 1825 306 1904 431 
Q 1984 556 2034 744 
Q 2144 1141 2144 2059 
Q 2144 3256 1772 3572 
Q 1650 3681 1484 3681 
z
M 1459 -63 
Q 1078 -63 809 206 
Q 547 466 398 916 
Q 250 1366 250 1881 
Q 250 2791 617 3347 
Q 984 3903 1484 3903 
Q 1953 3903 2266 3488 
Q 2700 2913 2700 1941 
Q 2700 1409 2578 998 
Q 2456 588 2262 367 
Q 2069 147 1862 42 
Q 1656 -63 1459 -63 
z
" transform="scale(0.015625)"/>
        <path id="LinLibertine-2e" d="M 464 35 
Q 366 134 366 275 
Q 366 416 464 516 
Q 563 616 703 616 
Q 844 616 944 516 
Q 1044 416 1044 275 
Q 1044 134 944 35 
Q 844 -63 703 -63 
Q 563 -63 464 35 
z
" transform="scale(0.015625)"/>
        <path id="LinLibertine-39" d="M 2150 1869 
Q 2203 2125 2203 2369 
Q 2203 3125 1993 3403 
Q 1784 3681 1434 3681 
Q 1184 3681 1017 3418 
Q 850 3156 850 2656 
Q 850 2516 886 2372 
Q 922 2228 998 2073 
Q 1075 1919 1234 1820 
Q 1394 1722 1619 1722 
Q 1925 1722 2150 1869 
z
M 2091 1638 
Q 1788 1500 1484 1497 
Q 875 1497 597 1789 
Q 319 2081 319 2541 
Q 319 3034 626 3468 
Q 934 3903 1503 3903 
Q 1716 3903 1908 3839 
Q 2100 3775 2298 3619 
Q 2497 3463 2614 3136 
Q 2731 2809 2731 2350 
Q 2731 1494 2138 800 
Q 1606 178 738 -78 
Q 659 -34 659 91 
Q 1250 313 1595 725 
Q 1941 1138 2091 1638 
z
" transform="scale(0.015625)"/>
        <path id="LinLibertine-36" d="M 866 1966 
Q 813 1709 813 1466 
Q 813 709 1020 431 
Q 1228 153 1581 153 
Q 1831 153 1997 415 
Q 2163 678 2163 1178 
Q 2163 1319 2128 1462 
Q 2094 1606 2017 1759 
Q 1941 1913 1780 2013 
Q 1619 2113 1394 2113 
Q 1091 2113 866 1966 
z
M 925 2197 
Q 1228 2334 1528 2338 
Q 2138 2338 2416 2045 
Q 2694 1753 2694 1294 
Q 2694 800 2387 364 
Q 2081 -72 1509 -72 
Q 1297 -72 1106 -8 
Q 916 56 717 214 
Q 519 372 400 698 
Q 281 1025 281 1484 
Q 281 2341 878 3034 
Q 1409 3656 2278 3909 
Q 2356 3859 2356 3744 
Q 1766 3522 1420 3109 
Q 1075 2697 925 2197 
z
" transform="scale(0.015625)"/>
       </defs>
       <use xlink:href="#LinLibertine-30"/>
       <use xlink:href="#LinLibertine-2e" transform="translate(46.484375 0)"/>
       <use xlink:href="#LinLibertine-39" transform="translate(68.457031 0)"/>
       <use xlink:href="#LinLibertine-36" transform="translate(114.941406 0)"/>
      </g>
     </g>
    </g>
    <g id="ytick_2">
     <g id="line2d_8">
      <path d="M 33.570625 219.895943 
L 321.950625 219.895943 
" clip-path="url(#pdf334e7fba)" style="fill: none; stroke: #b0b0b0; stroke-opacity: 0.3; stroke-width: 0.8; stroke-linecap: square"/>
     </g>
     <g id="line2d_9">
      <g>
       <use xlink:href="#m9b54281444" x="33.570625" y="219.895943" style="stroke: #000000; stroke-width: 0.8"/>
      </g>
     </g>
     <g id="text_7">
      <!-- 0.97 -->
      <g transform="translate(7.2 224.08563) scale(0.12 -0.12)">
       <defs>
        <path id="LinLibertine-37" d="M 1088 3425 
Q 966 3425 880 3395 
Q 794 3366 694 3237 
Q 594 3109 531 2869 
Q 434 2856 325 2888 
Q 447 3688 453 3909 
Q 453 3928 481 3928 
Q 506 3922 589 3881 
Q 672 3841 800 3841 
L 2119 3841 
Q 2375 3841 2613 3909 
L 2713 3834 
Q 2022 2144 1281 -63 
L 844 -84 
L 794 -38 
Q 1269 1019 2234 3425 
L 1088 3425 
z
" transform="scale(0.015625)"/>
       </defs>
       <use xlink:href="#LinLibertine-30"/>
       <use xlink:href="#LinLibertine-2e" transform="translate(46.484375 0)"/>
       <use xlink:href="#LinLibertine-39" transform="translate(68.457031 0)"/>
       <use xlink:href="#LinLibertine-37" transform="translate(114.941406 0)"/>
      </g>
     </g>
    </g>
    <g id="ytick_3">
     <g id="line2d_10">
      <path d="M 33.570625 164.677295 
L 321.950625 164.677295 
" clip-path="url(#pdf334e7fba)" style="fill: none; stroke: #b0b0b0; stroke-opacity: 0.3; stroke-width: 0.8; stroke-linecap: square"/>
     </g>
     <g id="line2d_11">
      <g>
       <use xlink:href="#m9b54281444" x="33.570625" y="164.677295" style="stroke: #000000; stroke-width: 0.8"/>
      </g>
     </g>
     <g id="text_8">
      <!-- 0.98 -->
      <g transform="translate(7.2 168.866983) scale(0.12 -0.12)">
       <defs>
        <path id="LinLibertine-38" d="M 1497 3681 
Q 1222 3681 1065 3526 
Q 909 3372 909 3144 
Q 909 2966 995 2808 
Q 1081 2650 1356 2472 
L 1556 2350 
Q 2069 2728 2069 3109 
Q 2069 3353 1930 3517 
Q 1791 3681 1497 3681 
z
M 2516 3103 
Q 2516 2828 2269 2595 
Q 2022 2363 1728 2216 
L 2181 1941 
Q 2681 1641 2681 1038 
Q 2681 628 2348 282 
Q 2016 -63 1434 -63 
Q 916 -63 605 195 
Q 294 453 294 934 
Q 294 1375 666 1703 
Q 888 1897 1181 2053 
L 1019 2156 
Q 456 2509 453 3022 
Q 453 3400 751 3651 
Q 1050 3903 1528 3903 
Q 1988 3903 2252 3679 
Q 2516 3456 2516 3103 
z
M 1447 159 
Q 1741 159 1978 323 
Q 2216 488 2216 909 
Q 2216 1422 1656 1759 
L 1356 1941 
Q 997 1703 859 1425 
Q 722 1147 722 934 
Q 722 544 950 351 
Q 1178 159 1447 159 
z
" transform="scale(0.015625)"/>
       </defs>
       <use xlink:href="#LinLibertine-30"/>
       <use xlink:href="#LinLibertine-2e" transform="translate(46.484375 0)"/>
       <use xlink:href="#LinLibertine-39" transform="translate(68.457031 0)"/>
       <use xlink:href="#LinLibertine-38" transform="translate(114.941406 0)"/>
      </g>
     </g>
    </g>
    <g id="ytick_4">
     <g id="line2d_12">
      <path d="M 33.570625 109.458648 
L 321.950625 109.458648 
" clip-path="url(#pdf334e7fba)" style="fill: none; stroke: #b0b0b0; stroke-opacity: 0.3; stroke-width: 0.8; stroke-linecap: square"/>
     </g>
     <g id="line2d_13">
      <g>
       <use xlink:href="#m9b54281444" x="33.570625" y="109.458648" style="stroke: #000000; stroke-width: 0.8"/>
      </g>
     </g>
     <g id="text_9">
      <!-- 0.99 -->
      <g transform="translate(7.2 113.648335) scale(0.12 -0.12)">
       <use xlink:href="#LinLibertine-30"/>
       <use xlink:href="#LinLibertine-2e" transform="translate(46.484375 0)"/>
       <use xlink:href="#LinLibertine-39" transform="translate(68.457031 0)"/>
       <use xlink:href="#LinLibertine-39" transform="translate(114.941406 0)"/>
      </g>
     </g>
    </g>
    <g id="ytick_5">
     <g id="line2d_14">
      <path d="M 33.570625 54.24 
L 321.950625 54.24 
" clip-path="url(#pdf334e7fba)" style="fill: none; stroke: #b0b0b0; stroke-opacity: 0.3; stroke-width: 0.8; stroke-linecap: square"/>
     </g>
     <g id="line2d_15">
      <g>
       <use xlink:href="#m9b54281444" x="33.570625" y="54.24" style="stroke: #000000; stroke-width: 0.8"/>
      </g>
     </g>
     <g id="text_10">
      <!-- 1.00 -->
      <g transform="translate(7.2 58.429687) scale(0.12 -0.12)">
       <defs>
        <path id="LinLibertine-31" d="M 1844 781 
Q 1844 397 1942 305 
Q 2041 213 2400 197 
Q 2431 166 2431 89 
Q 2431 13 2400 -13 
Q 1759 0 1619 0 
Q 1356 0 728 -13 
Q 703 13 703 89 
Q 703 166 728 197 
Q 1100 209 1225 309 
Q 1350 409 1350 781 
L 1350 2869 
Q 1350 3241 1222 3238 
Q 1050 3238 666 3078 
Q 588 3128 569 3250 
Q 1466 3666 1825 3891 
Q 1863 3891 1863 3859 
Q 1844 3713 1844 3003 
L 1844 781 
z
" transform="scale(0.015625)"/>
       </defs>
       <use xlink:href="#LinLibertine-31"/>
       <use xlink:href="#LinLibertine-2e" transform="translate(46.484375 0)"/>
       <use xlink:href="#LinLibertine-30" transform="translate(68.457031 0)"/>
       <use xlink:href="#LinLibertine-30" transform="translate(114.941406 0)"/>
      </g>
     </g>
    </g>
   </g>
   <g id="patch_3">
    <path d="M 47.989625 142.517773 
L 76.827625 142.517773 
L 76.827625 105.760739 
L 47.989625 105.760739 
L 47.989625 142.517773 
z
" clip-path="url(#pdf334e7fba)" style="fill: #4c72b0; opacity: 0.7; stroke: #000000; stroke-linejoin: miter"/>
   </g>
   <g id="line2d_16">
    <path d="M 62.408625 142.517773 
L 62.408625 152.716588 
" clip-path="url(#pdf334e7fba)" style="fill: none; stroke: #000000; stroke-linecap: square"/>
   </g>
   <g id="line2d_17">
    <path d="M 62.408625 105.760739 
L 62.408625 73.629964 
" clip-path="url(#pdf334e7fba)" style="fill: none; stroke: #000000; stroke-linecap: square"/>
   </g>
   <g id="line2d_18">
    <path d="M 55.199125 152.716588 
L 69.618125 152.716588 
" clip-path="url(#pdf334e7fba)" style="fill: none; stroke: #000000; stroke-linecap: square"/>
   </g>
   <g id="line2d_19">
    <path d="M 55.199125 73.629964 
L 69.618125 73.629964 
" clip-path="url(#pdf334e7fba)" style="fill: none; stroke: #000000; stroke-linecap: square"/>
   </g>
   <g id="line2d_20"/>
   <g id="patch_4">
    <path d="M 105.665625 111.89079 
L 134.503625 111.89079 
L 134.503625 104.388885 
L 105.665625 104.388885 
L 105.665625 111.89079 
z
" clip-path="url(#pdf334e7fba)" style="fill: #dd8452; opacity: 0.7; stroke: #000000; stroke-linejoin: miter"/>
   </g>
   <g id="line2d_21">
    <path d="M 120.084625 111.89079 
L 120.084625 118.669644 
" clip-path="url(#pdf334e7fba)" style="fill: none; stroke: #000000; stroke-linecap: square"/>
   </g>
   <g id="line2d_22">
    <path d="M 120.084625 104.388885 
L 120.084625 104.388885 
" clip-path="url(#pdf334e7fba)" style="fill: none; stroke: #000000; stroke-linecap: square"/>
   </g>
   <g id="line2d_23">
    <path d="M 112.875125 118.669644 
L 127.294125 118.669644 
" clip-path="url(#pdf334e7fba)" style="fill: none; stroke: #000000; stroke-linecap: square"/>
   </g>
   <g id="line2d_24">
    <path d="M 112.875125 104.388885 
L 127.294125 104.388885 
" clip-path="url(#pdf334e7fba)" style="fill: none; stroke: #000000; stroke-linecap: square"/>
   </g>
   <g id="line2d_25">
    <defs>
     <path id="m148620f209" d="M 0 3 
C 0.795609 3 1.55874 2.683901 2.12132 2.12132 
C 2.683901 1.55874 3 0.795609 3 0 
C 3 -0.795609 2.683901 -1.55874 2.12132 -2.12132 
C 1.55874 -2.683901 0.795609 -3 0 -3 
C -0.795609 -3 -1.55874 -2.683901 -2.12132 -2.12132 
C -2.683901 -1.55874 -3 -0.795609 -3 0 
C -3 0.795609 -2.683901 1.55874 -2.12132 2.12132 
C -1.55874 2.683901 -0.795609 3 0 3 
z
" style="stroke: #000000"/>
    </defs>
    <g clip-path="url(#pdf334e7fba)">
     <use xlink:href="#m148620f209" x="120.084625" y="74.546025" style="fill-opacity: 0; stroke: #000000"/>
    </g>
   </g>
   <g id="patch_5">
    <path d="M 163.341625 141.733799 
L 192.179625 141.733799 
L 192.179625 108.363954 
L 163.341625 108.363954 
L 163.341625 141.733799 
z
" clip-path="url(#pdf334e7fba)" style="fill: #55a868; opacity: 0.7; stroke: #000000; stroke-linejoin: miter"/>
   </g>
   <g id="line2d_26">
    <path d="M 177.760625 141.733799 
L 177.760625 152.411235 
" clip-path="url(#pdf334e7fba)" style="fill: none; stroke: #000000; stroke-linecap: square"/>
   </g>
   <g id="line2d_27">
    <path d="M 177.760625 108.363954 
L 177.760625 66.225135 
" clip-path="url(#pdf334e7fba)" style="fill: none; stroke: #000000; stroke-linecap: square"/>
   </g>
   <g id="line2d_28">
    <path d="M 170.551125 152.411235 
L 184.970125 152.411235 
" clip-path="url(#pdf334e7fba)" style="fill: none; stroke: #000000; stroke-linecap: square"/>
   </g>
   <g id="line2d_29">
    <path d="M 170.551125 66.225135 
L 184.970125 66.225135 
" clip-path="url(#pdf334e7fba)" style="fill: none; stroke: #000000; stroke-linecap: square"/>
   </g>
   <g id="line2d_30"/>
   <g id="patch_6">
    <path d="M 221.017625 163.251293 
L 249.855625 163.251293 
L 249.855625 110.119739 
L 221.017625 110.119739 
L 221.017625 163.251293 
z
" clip-path="url(#pdf334e7fba)" style="fill: #c44e52; opacity: 0.7; stroke: #000000; stroke-linejoin: miter"/>
   </g>
   <g id="line2d_31">
    <path d="M 235.436625 163.251293 
L 235.436625 185.230403 
" clip-path="url(#pdf334e7fba)" style="fill: none; stroke: #000000; stroke-linecap: square"/>
   </g>
   <g id="line2d_32">
    <path d="M 235.436625 110.119739 
L 235.436625 74.698702 
" clip-path="url(#pdf334e7fba)" style="fill: none; stroke: #000000; stroke-linecap: square"/>
   </g>
   <g id="line2d_33">
    <path d="M 228.227125 185.230403 
L 242.646125 185.230403 
" clip-path="url(#pdf334e7fba)" style="fill: none; stroke: #000000; stroke-linecap: square"/>
   </g>
   <g id="line2d_34">
    <path d="M 228.227125 74.698702 
L 242.646125 74.698702 
" clip-path="url(#pdf334e7fba)" style="fill: none; stroke: #000000; stroke-linecap: square"/>
   </g>
   <g id="line2d_35"/>
   <g id="patch_7">
    <path d="M 278.693625 111.590526 
L 307.531625 111.590526 
L 307.531625 104.318017 
L 278.693625 104.318017 
L 278.693625 111.590526 
z
" clip-path="url(#pdf334e7fba)" style="fill: #8172b2; opacity: 0.7; stroke: #000000; stroke-linejoin: miter"/>
   </g>
   <g id="line2d_36">
    <path d="M 293.112625 111.590526 
L 293.112625 121.112474 
" clip-path="url(#pdf334e7fba)" style="fill: none; stroke: #000000; stroke-linecap: square"/>
   </g>
   <g id="line2d_37">
    <path d="M 293.112625 104.318017 
L 293.112625 104.318017 
" clip-path="url(#pdf334e7fba)" style="fill: none; stroke: #000000; stroke-linecap: square"/>
   </g>
   <g id="line2d_38">
    <path d="M 285.903125 121.112474 
L 300.322125 121.112474 
" clip-path="url(#pdf334e7fba)" style="fill: none; stroke: #000000; stroke-linecap: square"/>
   </g>
   <g id="line2d_39">
    <path d="M 285.903125 104.318017 
L 300.322125 104.318017 
" clip-path="url(#pdf334e7fba)" style="fill: none; stroke: #000000; stroke-linecap: square"/>
   </g>
   <g id="line2d_40">
    <g clip-path="url(#pdf334e7fba)">
     <use xlink:href="#m148620f209" x="293.112625" y="74.393348" style="fill-opacity: 0; stroke: #000000"/>
    </g>
   </g>
   <g id="line2d_41">
    <path d="M 47.989625 141.113145 
L 76.827625 141.113145 
" clip-path="url(#pdf334e7fba)" style="fill: none; stroke: #ff7f0e"/>
   </g>
   <g id="line2d_42">
    <path d="M 105.665625 104.623371 
L 134.503625 104.623371 
" clip-path="url(#pdf334e7fba)" style="fill: none; stroke: #ff7f0e"/>
   </g>
   <g id="line2d_43">
    <path d="M 163.341625 138.614334 
L 192.179625 138.614334 
" clip-path="url(#pdf334e7fba)" style="fill: none; stroke: #ff7f0e"/>
   </g>
   <g id="line2d_44">
    <path d="M 221.017625 113.229722 
L 249.855625 113.229722 
" clip-path="url(#pdf334e7fba)" style="fill: none; stroke: #ff7f0e"/>
   </g>
   <g id="line2d_45">
    <path d="M 278.693625 104.541313 
L 307.531625 104.541313 
" clip-path="url(#pdf334e7fba)" style="fill: none; stroke: #ff7f0e"/>
   </g>
   <g id="patch_8">
    <path d="M 33.570625 316.220805 
L 33.570625 54.24 
" style="fill: none; stroke: #000000; stroke-width: 0.8; stroke-linejoin: miter; stroke-linecap: square"/>
   </g>
   <g id="patch_9">
    <path d="M 321.950625 316.220805 
L 321.950625 54.24 
" style="fill: none; stroke: #000000; stroke-width: 0.8; stroke-linejoin: miter; stroke-linecap: square"/>
   </g>
   <g id="patch_10">
    <path d="M 33.570625 316.220805 
L 321.950625 316.220805 
" style="fill: none; stroke: #000000; stroke-width: 0.8; stroke-linejoin: miter; stroke-linecap: square"/>
   </g>
   <g id="patch_11">
    <path d="M 33.570625 54.24 
L 321.950625 54.24 
" style="fill: none; stroke: #000000; stroke-width: 0.8; stroke-linejoin: miter; stroke-linecap: square"/>
   </g>
   <g id="text_11">
    <!-- ROC-AUC -->
    <g transform="translate(146.9885 48.24) scale(0.144 -0.144)">
     <defs>
      <path id="LinLibertine-4f" d="M 2119 3994 
Q 1888 3994 1670 3881 
Q 1453 3769 1267 3551 
Q 1081 3334 965 2953 
Q 850 2572 850 2094 
Q 850 1209 1298 681 
Q 1747 153 2369 153 
Q 2931 153 3289 650 
Q 3647 1147 3647 1984 
Q 3647 2925 3212 3459 
Q 2778 3994 2119 3994 
z
M 4263 2106 
Q 4263 1306 3866 744 
Q 3597 359 3180 148 
Q 2763 -63 2241 -63 
Q 1397 -63 817 500 
Q 238 1063 238 1984 
Q 238 2831 675 3431 
Q 944 3800 1339 4006 
Q 1734 4213 2203 4213 
Q 3094 4213 3678 3642 
Q 4263 3072 4263 2106 
z
" transform="scale(0.015625)"/>
      <path id="LinLibertine-43" d="M 2284 -63 
Q 1625 -63 1148 246 
Q 672 556 455 1017 
Q 238 1478 238 2016 
Q 238 3047 916 3669 
Q 1509 4213 2291 4213 
Q 2750 4213 3189 4070 
Q 3628 3928 3694 3922 
Q 3803 3250 3834 2931 
Q 3713 2869 3622 2900 
Q 3297 3975 2222 3975 
Q 1663 3975 1200 3406 
Q 1019 3184 919 2862 
Q 819 2541 819 2138 
Q 819 1644 972 1216 
Q 1125 788 1465 492 
Q 1806 197 2278 197 
Q 2725 197 3075 361 
Q 3425 525 3763 897 
Q 3859 897 3909 800 
Q 3250 -63 2284 -63 
z
" transform="scale(0.015625)"/>
      <path id="LinLibertine-2d" d="M 1734 1428 
L 353 1428 
Q 256 1428 256 1550 
Q 256 1641 307 1727 
Q 359 1813 416 1813 
L 1819 1813 
Q 1909 1813 1906 1684 
Q 1906 1622 1848 1525 
Q 1791 1428 1734 1428 
z
" transform="scale(0.015625)"/>
      <path id="LinLibertine-41" d="M 1684 1813 
L 2816 1813 
L 2216 3553 
L 2175 3553 
L 1522 1897 
Q 1513 1878 1516 1862 
Q 1519 1847 1528 1837 
Q 1538 1828 1559 1822 
Q 1581 1816 1611 1814 
Q 1641 1813 1684 1813 
z
M 991 506 
Q 984 444 971 395 
Q 959 347 1007 314 
Q 1056 281 1084 262 
Q 1113 244 1191 228 
Q 1269 213 1312 209 
Q 1356 206 1434 197 
Q 1459 166 1459 89 
Q 1459 13 1434 -13 
Q 959 0 616 0 
Q 519 0 44 -13 
Q 13 13 13 89 
Q 13 166 44 197 
Q 288 216 428 297 
Q 569 378 684 653 
L 2138 4084 
Q 2278 4084 2491 4213 
L 3809 550 
Q 3847 434 3901 364 
Q 3956 294 4051 259 
Q 4147 225 4195 219 
Q 4244 213 4384 197 
Q 4416 166 4416 89 
Q 4416 13 4384 -13 
Q 3909 0 3653 0 
Q 3288 0 2816 -13 
Q 2791 13 2791 89 
Q 2791 166 2816 197 
Q 2853 197 2914 201 
Q 2975 206 3008 209 
Q 3041 213 3092 219 
Q 3144 225 3169 231 
Q 3194 238 3228 250 
Q 3263 263 3277 281 
Q 3291 300 3300 326 
Q 3309 353 3306 384 
Q 3303 416 3291 459 
L 2919 1544 
L 1569 1544 
Q 1453 1544 1411 1520 
Q 1369 1497 1344 1434 
L 991 506 
z
" transform="scale(0.015625)"/>
      <path id="LinLibertine-55" d="M 1100 3347 
L 1100 1722 
Q 1100 1453 1112 1279 
Q 1125 1106 1203 882 
Q 1281 659 1428 519 
Q 1759 200 2188 197 
Q 2500 197 2725 297 
Q 2950 397 3072 540 
Q 3194 684 3264 912 
Q 3334 1141 3350 1328 
Q 3366 1516 3366 1772 
L 3366 3347 
Q 3366 3553 3347 3658 
Q 3328 3763 3245 3820 
Q 3163 3878 3078 3893 
Q 2994 3909 2778 3928 
Q 2753 3953 2753 4031 
Q 2753 4109 2778 4141 
Q 3419 4128 3519 4128 
Q 3544 4128 4172 4141 
Q 4197 4109 4197 4032 
Q 4197 3956 4172 3928 
Q 3941 3903 3861 3875 
Q 3781 3847 3731 3728 
Q 3681 3609 3681 3347 
L 3681 1888 
Q 3681 1434 3611 1098 
Q 3541 763 3364 491 
Q 3188 219 2861 78 
Q 2534 -63 2053 -63 
Q 1803 -63 1570 4 
Q 1338 72 1094 231 
Q 850 391 703 720 
Q 556 1050 556 1509 
L 556 3347 
Q 556 3725 464 3820 
Q 372 3916 63 3928 
Q 38 3953 38 4031 
Q 38 4109 63 4141 
Q 703 4128 825 4128 
Q 1063 4128 1691 4141 
Q 1716 4109 1716 4032 
Q 1716 3956 1691 3928 
Q 1306 3916 1203 3823 
Q 1100 3731 1100 3347 
z
" transform="scale(0.015625)"/>
     </defs>
     <use xlink:href="#LinLibertine-52"/>
     <use xlink:href="#LinLibertine-4f" transform="translate(58.691406 0)"/>
     <use xlink:href="#LinLibertine-43" transform="translate(128.857422 0)"/>
     <use xlink:href="#LinLibertine-2d" transform="translate(193.457031 0)"/>
     <use xlink:href="#LinLibertine-41" transform="translate(227.246094 0)"/>
     <use xlink:href="#LinLibertine-55" transform="translate(296.728516 0)"/>
     <use xlink:href="#LinLibertine-43" transform="translate(362.792969 0)"/>
    </g>
   </g>
  </g>
  <g id="axes_2">
   <g id="patch_12">
    <path d="M 367.110625 316.220805 
L 655.490625 316.220805 
L 655.490625 54.24 
L 367.110625 54.24 
z
" style="fill: #ffffff"/>
   </g>
   <g id="matplotlib.axis_3">
    <g id="xtick_6">
     <g id="line2d_46">
      <g>
       <use xlink:href="#m9fdcd78534" x="395.948625" y="316.220805" style="stroke: #000000; stroke-width: 0.8"/>
      </g>
     </g>
     <g id="text_12">
      <!-- SVM RBF -->
      <g transform="translate(374.200212 343.356054) rotate(-15) scale(0.12 -0.12)">
       <use xlink:href="#LinLibertine-53"/>
       <use xlink:href="#LinLibertine-56" transform="translate(48.486328 0)"/>
       <use xlink:href="#LinLibertine-4d" transform="translate(113.671875 0)"/>
       <use xlink:href="#LinLibertine-20" transform="translate(197.558594 0)"/>
       <use xlink:href="#LinLibertine-52" transform="translate(222.558594 0)"/>
       <use xlink:href="#LinLibertine-42" transform="translate(281.25 0)"/>
       <use xlink:href="#LinLibertine-46" transform="translate(340.039062 0)"/>
      </g>
     </g>
    </g>
    <g id="xtick_7">
     <g id="line2d_47">
      <g>
       <use xlink:href="#m9fdcd78534" x="453.624625" y="316.220805" style="stroke: #000000; stroke-width: 0.8"/>
      </g>
     </g>
     <g id="text_13">
      <!-- SVM Lin -->
      <g transform="translate(433.687323 342.385483) rotate(-15) scale(0.12 -0.12)">
       <use xlink:href="#LinLibertine-53"/>
       <use xlink:href="#LinLibertine-56" transform="translate(48.486328 0)"/>
       <use xlink:href="#LinLibertine-4d" transform="translate(113.671875 0)"/>
       <use xlink:href="#LinLibertine-20" transform="translate(197.558594 0)"/>
       <use xlink:href="#LinLibertine-4c" transform="translate(222.558594 0)"/>
       <use xlink:href="#LinLibertine-69" transform="translate(275.146484 0)"/>
       <use xlink:href="#LinLibertine-6e" transform="translate(302.246094 0)"/>
      </g>
     </g>
    </g>
    <g id="xtick_8">
     <g id="line2d_48">
      <g>
       <use xlink:href="#m9fdcd78534" x="511.300625" y="316.220805" style="stroke: #000000; stroke-width: 0.8"/>
      </g>
     </g>
     <g id="text_14">
      <!-- RF -->
      <g transform="translate(505.858549 334.617514) rotate(-15) scale(0.12 -0.12)">
       <use xlink:href="#LinLibertine-52"/>
       <use xlink:href="#LinLibertine-46" transform="translate(58.691406 0)"/>
      </g>
     </g>
    </g>
    <g id="xtick_9">
     <g id="line2d_49">
      <g>
       <use xlink:href="#m9fdcd78534" x="568.976625" y="316.220805" style="stroke: #000000; stroke-width: 0.8"/>
      </g>
     </g>
     <g id="text_15">
      <!-- GB -->
      <g transform="translate(562.263149 335.298856) rotate(-15) scale(0.12 -0.12)">
       <use xlink:href="#LinLibertine-47"/>
       <use xlink:href="#LinLibertine-42" transform="translate(69.482422 0)"/>
      </g>
     </g>
    </g>
    <g id="xtick_10">
     <g id="line2d_50">
      <g>
       <use xlink:href="#m9fdcd78534" x="626.652625" y="316.220805" style="stroke: #000000; stroke-width: 0.8"/>
      </g>
     </g>
     <g id="text_16">
      <!-- LR -->
      <g transform="translate(620.924394 334.770865) rotate(-15) scale(0.12 -0.12)">
       <use xlink:href="#LinLibertine-4c"/>
       <use xlink:href="#LinLibertine-52" transform="translate(52.587891 0)"/>
      </g>
     </g>
    </g>
   </g>
   <g id="matplotlib.axis_4">
    <g id="ytick_6">
     <g id="line2d_51">
      <path d="M 367.110625 288.068559 
L 655.490625 288.068559 
" clip-path="url(#p8ea0402f30)" style="fill: none; stroke: #b0b0b0; stroke-opacity: 0.3; stroke-width: 0.8; stroke-linecap: square"/>
     </g>
     <g id="line2d_52">
      <g>
       <use xlink:href="#m9b54281444" x="367.110625" y="288.068559" style="stroke: #000000; stroke-width: 0.8"/>
      </g>
     </g>
     <g id="text_17">
      <!-- 0.84 -->
      <g transform="translate(340.74 292.258247) scale(0.12 -0.12)">
       <defs>
        <path id="LinLibertine-34" d="M 1734 3244 
Q 1247 2578 513 1403 
L 1734 1403 
L 1734 3244 
z
M 2753 1403 
Q 2850 1403 2847 1300 
Q 2847 1244 2786 1172 
Q 2725 1100 2663 1100 
L 2222 1100 
L 2222 513 
Q 2222 409 2237 348 
Q 2253 288 2320 259 
Q 2388 231 2425 225 
Q 2463 219 2603 203 
Q 2647 197 2669 197 
Q 2700 166 2700 89 
Q 2700 13 2669 -13 
Q 2259 0 1972 0 
Q 1625 0 1216 -13 
Q 1191 13 1191 89 
Q 1191 166 1216 197 
Q 1559 222 1644 291 
Q 1734 363 1734 513 
L 1734 1100 
L 428 1100 
Q 231 1100 178 1369 
Q 1169 2925 1913 3834 
Q 1969 3906 2016 3903 
L 2222 3903 
L 2234 3891 
Q 2222 3834 2222 3272 
L 2222 1403 
L 2753 1403 
z
" transform="scale(0.015625)"/>
       </defs>
       <use xlink:href="#LinLibertine-30"/>
       <use xlink:href="#LinLibertine-2e" transform="translate(46.484375 0)"/>
       <use xlink:href="#LinLibertine-38" transform="translate(68.457031 0)"/>
       <use xlink:href="#LinLibertine-34" transform="translate(114.941406 0)"/>
      </g>
     </g>
    </g>
    <g id="ytick_7">
     <g id="line2d_53">
      <path d="M 367.110625 258.839989 
L 655.490625 258.839989 
" clip-path="url(#p8ea0402f30)" style="fill: none; stroke: #b0b0b0; stroke-opacity: 0.3; stroke-width: 0.8; stroke-linecap: square"/>
     </g>
     <g id="line2d_54">
      <g>
       <use xlink:href="#m9b54281444" x="367.110625" y="258.839989" style="stroke: #000000; stroke-width: 0.8"/>
      </g>
     </g>
     <g id="text_18">
      <!-- 0.86 -->
      <g transform="translate(340.74 263.029677) scale(0.12 -0.12)">
       <use xlink:href="#LinLibertine-30"/>
       <use xlink:href="#LinLibertine-2e" transform="translate(46.484375 0)"/>
       <use xlink:href="#LinLibertine-38" transform="translate(68.457031 0)"/>
       <use xlink:href="#LinLibertine-36" transform="translate(114.941406 0)"/>
      </g>
     </g>
    </g>
    <g id="ytick_8">
     <g id="line2d_55">
      <path d="M 367.110625 229.611419 
L 655.490625 229.611419 
" clip-path="url(#p8ea0402f30)" style="fill: none; stroke: #b0b0b0; stroke-opacity: 0.3; stroke-width: 0.8; stroke-linecap: square"/>
     </g>
     <g id="line2d_56">
      <g>
       <use xlink:href="#m9b54281444" x="367.110625" y="229.611419" style="stroke: #000000; stroke-width: 0.8"/>
      </g>
     </g>
     <g id="text_19">
      <!-- 0.88 -->
      <g transform="translate(340.74 233.801107) scale(0.12 -0.12)">
       <use xlink:href="#LinLibertine-30"/>
       <use xlink:href="#LinLibertine-2e" transform="translate(46.484375 0)"/>
       <use xlink:href="#LinLibertine-38" transform="translate(68.457031 0)"/>
       <use xlink:href="#LinLibertine-38" transform="translate(114.941406 0)"/>
      </g>
     </g>
    </g>
    <g id="ytick_9">
     <g id="line2d_57">
      <path d="M 367.110625 200.38285 
L 655.490625 200.38285 
" clip-path="url(#p8ea0402f30)" style="fill: none; stroke: #b0b0b0; stroke-opacity: 0.3; stroke-width: 0.8; stroke-linecap: square"/>
     </g>
     <g id="line2d_58">
      <g>
       <use xlink:href="#m9b54281444" x="367.110625" y="200.38285" style="stroke: #000000; stroke-width: 0.8"/>
      </g>
     </g>
     <g id="text_20">
      <!-- 0.90 -->
      <g transform="translate(340.74 204.572537) scale(0.12 -0.12)">
       <use xlink:href="#LinLibertine-30"/>
       <use xlink:href="#LinLibertine-2e" transform="translate(46.484375 0)"/>
       <use xlink:href="#LinLibertine-39" transform="translate(68.457031 0)"/>
       <use xlink:href="#LinLibertine-30" transform="translate(114.941406 0)"/>
      </g>
     </g>
    </g>
    <g id="ytick_10">
     <g id="line2d_59">
      <path d="M 367.110625 171.15428 
L 655.490625 171.15428 
" clip-path="url(#p8ea0402f30)" style="fill: none; stroke: #b0b0b0; stroke-opacity: 0.3; stroke-width: 0.8; stroke-linecap: square"/>
     </g>
     <g id="line2d_60">
      <g>
       <use xlink:href="#m9b54281444" x="367.110625" y="171.15428" style="stroke: #000000; stroke-width: 0.8"/>
      </g>
     </g>
     <g id="text_21">
      <!-- 0.92 -->
      <g transform="translate(340.74 175.343967) scale(0.12 -0.12)">
       <defs>
        <path id="LinLibertine-32" d="M 391 2994 
Q 391 3313 717 3608 
Q 1044 3903 1544 3903 
Q 1978 3903 2301 3658 
Q 2625 3413 2625 2931 
Q 2625 2700 2528 2495 
Q 2431 2291 2320 2159 
Q 2209 2028 1984 1813 
L 1338 1191 
Q 863 716 863 416 
L 2003 416 
Q 2175 416 2272 550 
Q 2369 684 2450 1031 
Q 2572 1056 2638 997 
Q 2625 550 2484 -13 
Q 2191 0 1984 0 
L 863 0 
L 331 -13 
Q 331 294 476 578 
Q 622 863 1063 1313 
L 1538 1778 
Q 2063 2309 2059 2906 
Q 2059 3322 1890 3501 
Q 1722 3681 1503 3681 
Q 1184 3681 1028 3559 
Q 872 3438 872 3291 
Q 872 3259 897 3201 
Q 922 3144 922 3138 
Q 947 3047 947 3003 
Q 947 2906 842 2826 
Q 738 2747 647 2747 
Q 544 2747 467 2819 
Q 391 2891 391 2994 
z
" transform="scale(0.015625)"/>
       </defs>
       <use xlink:href="#LinLibertine-30"/>
       <use xlink:href="#LinLibertine-2e" transform="translate(46.484375 0)"/>
       <use xlink:href="#LinLibertine-39" transform="translate(68.457031 0)"/>
       <use xlink:href="#LinLibertine-32" transform="translate(114.941406 0)"/>
      </g>
     </g>
    </g>
    <g id="ytick_11">
     <g id="line2d_61">
      <path d="M 367.110625 141.92571 
L 655.490625 141.92571 
" clip-path="url(#p8ea0402f30)" style="fill: none; stroke: #b0b0b0; stroke-opacity: 0.3; stroke-width: 0.8; stroke-linecap: square"/>
     </g>
     <g id="line2d_62">
      <g>
       <use xlink:href="#m9b54281444" x="367.110625" y="141.92571" style="stroke: #000000; stroke-width: 0.8"/>
      </g>
     </g>
     <g id="text_22">
      <!-- 0.94 -->
      <g transform="translate(340.74 146.115397) scale(0.12 -0.12)">
       <use xlink:href="#LinLibertine-30"/>
       <use xlink:href="#LinLibertine-2e" transform="translate(46.484375 0)"/>
       <use xlink:href="#LinLibertine-39" transform="translate(68.457031 0)"/>
       <use xlink:href="#LinLibertine-34" transform="translate(114.941406 0)"/>
      </g>
     </g>
    </g>
    <g id="ytick_12">
     <g id="line2d_63">
      <path d="M 367.110625 112.69714 
L 655.490625 112.69714 
" clip-path="url(#p8ea0402f30)" style="fill: none; stroke: #b0b0b0; stroke-opacity: 0.3; stroke-width: 0.8; stroke-linecap: square"/>
     </g>
     <g id="line2d_64">
      <g>
       <use xlink:href="#m9b54281444" x="367.110625" y="112.69714" style="stroke: #000000; stroke-width: 0.8"/>
      </g>
     </g>
     <g id="text_23">
      <!-- 0.96 -->
      <g transform="translate(340.74 116.886827) scale(0.12 -0.12)">
       <use xlink:href="#LinLibertine-30"/>
       <use xlink:href="#LinLibertine-2e" transform="translate(46.484375 0)"/>
       <use xlink:href="#LinLibertine-39" transform="translate(68.457031 0)"/>
       <use xlink:href="#LinLibertine-36" transform="translate(114.941406 0)"/>
      </g>
     </g>
    </g>
    <g id="ytick_13">
     <g id="line2d_65">
      <path d="M 367.110625 83.46857 
L 655.490625 83.46857 
" clip-path="url(#p8ea0402f30)" style="fill: none; stroke: #b0b0b0; stroke-opacity: 0.3; stroke-width: 0.8; stroke-linecap: square"/>
     </g>
     <g id="line2d_66">
      <g>
       <use xlink:href="#m9b54281444" x="367.110625" y="83.46857" style="stroke: #000000; stroke-width: 0.8"/>
      </g>
     </g>
     <g id="text_24">
      <!-- 0.98 -->
      <g transform="translate(340.74 87.658257) scale(0.12 -0.12)">
       <use xlink:href="#LinLibertine-30"/>
       <use xlink:href="#LinLibertine-2e" transform="translate(46.484375 0)"/>
       <use xlink:href="#LinLibertine-39" transform="translate(68.457031 0)"/>
       <use xlink:href="#LinLibertine-38" transform="translate(114.941406 0)"/>
      </g>
     </g>
    </g>
    <g id="ytick_14">
     <g id="line2d_67">
      <path d="M 367.110625 54.24 
L 655.490625 54.24 
" clip-path="url(#p8ea0402f30)" style="fill: none; stroke: #b0b0b0; stroke-opacity: 0.3; stroke-width: 0.8; stroke-linecap: square"/>
     </g>
     <g id="line2d_68">
      <g>
       <use xlink:href="#m9b54281444" x="367.110625" y="54.24" style="stroke: #000000; stroke-width: 0.8"/>
      </g>
     </g>
     <g id="text_25">
      <!-- 1.00 -->
      <g transform="translate(340.74 58.429687) scale(0.12 -0.12)">
       <use xlink:href="#LinLibertine-31"/>
       <use xlink:href="#LinLibertine-2e" transform="translate(46.484375 0)"/>
       <use xlink:href="#LinLibertine-30" transform="translate(68.457031 0)"/>
       <use xlink:href="#LinLibertine-30" transform="translate(114.941406 0)"/>
      </g>
     </g>
    </g>
   </g>
   <g id="patch_13">
    <path d="M 381.529625 100.431565 
L 410.367625 100.431565 
L 410.367625 85.697464 
L 381.529625 85.697464 
L 381.529625 100.431565 
z
" clip-path="url(#p8ea0402f30)" style="fill: #4c72b0; opacity: 0.7; stroke: #000000; stroke-linejoin: miter"/>
   </g>
   <g id="line2d_69">
    <path d="M 395.948625 100.431565 
L 395.948625 103.629767 
" clip-path="url(#p8ea0402f30)" style="fill: none; stroke: #000000; stroke-linecap: square"/>
   </g>
   <g id="line2d_70">
    <path d="M 395.948625 85.697464 
L 395.948625 76.888566 
" clip-path="url(#p8ea0402f30)" style="fill: none; stroke: #000000; stroke-linecap: square"/>
   </g>
   <g id="line2d_71">
    <path d="M 388.739125 103.629767 
L 403.158125 103.629767 
" clip-path="url(#p8ea0402f30)" style="fill: none; stroke: #000000; stroke-linecap: square"/>
   </g>
   <g id="line2d_72">
    <path d="M 388.739125 76.888566 
L 403.158125 76.888566 
" clip-path="url(#p8ea0402f30)" style="fill: none; stroke: #000000; stroke-linecap: square"/>
   </g>
   <g id="line2d_73"/>
   <g id="patch_14">
    <path d="M 439.205625 108.397886 
L 468.043625 108.397886 
L 468.043625 101.65854 
L 439.205625 101.65854 
L 439.205625 108.397886 
z
" clip-path="url(#p8ea0402f30)" style="fill: #dd8452; opacity: 0.7; stroke: #000000; stroke-linejoin: miter"/>
   </g>
   <g id="line2d_74">
    <path d="M 453.624625 108.397886 
L 453.624625 116.386817 
" clip-path="url(#p8ea0402f30)" style="fill: none; stroke: #000000; stroke-linecap: square"/>
   </g>
   <g id="line2d_75">
    <path d="M 453.624625 101.65854 
L 453.624625 101.65854 
" clip-path="url(#p8ea0402f30)" style="fill: none; stroke: #000000; stroke-linecap: square"/>
   </g>
   <g id="line2d_76">
    <path d="M 446.415125 116.386817 
L 460.834125 116.386817 
" clip-path="url(#p8ea0402f30)" style="fill: none; stroke: #000000; stroke-linecap: square"/>
   </g>
   <g id="line2d_77">
    <path d="M 446.415125 101.65854 
L 460.834125 101.65854 
" clip-path="url(#p8ea0402f30)" style="fill: none; stroke: #000000; stroke-linecap: square"/>
   </g>
   <g id="line2d_78">
    <g clip-path="url(#p8ea0402f30)">
     <use xlink:href="#m148620f209" x="453.624625" y="76.888566" style="fill-opacity: 0; stroke: #000000"/>
    </g>
   </g>
   <g id="patch_15">
    <path d="M 496.881625 149.265529 
L 525.719625 149.265529 
L 525.719625 120.468366 
L 496.881625 120.468366 
L 496.881625 149.265529 
z
" clip-path="url(#p8ea0402f30)" style="fill: #55a868; opacity: 0.7; stroke: #000000; stroke-linejoin: miter"/>
   </g>
   <g id="line2d_79">
    <path d="M 511.300625 149.265529 
L 511.300625 156.895987 
" clip-path="url(#p8ea0402f30)" style="fill: none; stroke: #000000; stroke-linecap: square"/>
   </g>
   <g id="line2d_80">
    <path d="M 511.300625 120.468366 
L 511.300625 102.69601 
" clip-path="url(#p8ea0402f30)" style="fill: none; stroke: #000000; stroke-linecap: square"/>
   </g>
   <g id="line2d_81">
    <path d="M 504.091125 156.895987 
L 518.510125 156.895987 
" clip-path="url(#p8ea0402f30)" style="fill: none; stroke: #000000; stroke-linecap: square"/>
   </g>
   <g id="line2d_82">
    <path d="M 504.091125 102.69601 
L 518.510125 102.69601 
" clip-path="url(#p8ea0402f30)" style="fill: none; stroke: #000000; stroke-linecap: square"/>
   </g>
   <g id="line2d_83"/>
   <g id="patch_16">
    <path d="M 554.557625 150.471149 
L 583.395625 150.471149 
L 583.395625 127.053152 
L 554.557625 127.053152 
L 554.557625 150.471149 
z
" clip-path="url(#p8ea0402f30)" style="fill: #c44e52; opacity: 0.7; stroke: #000000; stroke-linejoin: miter"/>
   </g>
   <g id="line2d_84">
    <path d="M 568.976625 150.471149 
L 568.976625 185.230403 
" clip-path="url(#p8ea0402f30)" style="fill: none; stroke: #000000; stroke-linecap: square"/>
   </g>
   <g id="line2d_85">
    <path d="M 568.976625 127.053152 
L 568.976625 123.317115 
" clip-path="url(#p8ea0402f30)" style="fill: none; stroke: #000000; stroke-linecap: square"/>
   </g>
   <g id="line2d_86">
    <path d="M 561.767125 185.230403 
L 576.186125 185.230403 
" clip-path="url(#p8ea0402f30)" style="fill: none; stroke: #000000; stroke-linecap: square"/>
   </g>
   <g id="line2d_87">
    <path d="M 561.767125 123.317115 
L 576.186125 123.317115 
" clip-path="url(#p8ea0402f30)" style="fill: none; stroke: #000000; stroke-linecap: square"/>
   </g>
   <g id="line2d_88"/>
   <g id="patch_17">
    <path d="M 612.233625 111.659468 
L 641.071625 111.659468 
L 641.071625 106.013826 
L 612.233625 106.013826 
L 612.233625 111.659468 
z
" clip-path="url(#p8ea0402f30)" style="fill: #8172b2; opacity: 0.7; stroke: #000000; stroke-linejoin: miter"/>
   </g>
   <g id="line2d_89">
    <path d="M 626.652625 111.659468 
L 626.652625 111.659468 
" clip-path="url(#p8ea0402f30)" style="fill: none; stroke: #000000; stroke-linecap: square"/>
   </g>
   <g id="line2d_90">
    <path d="M 626.652625 106.013826 
L 626.652625 106.013826 
" clip-path="url(#p8ea0402f30)" style="fill: none; stroke: #000000; stroke-linecap: square"/>
   </g>
   <g id="line2d_91">
    <path d="M 619.443125 111.659468 
L 633.862125 111.659468 
" clip-path="url(#p8ea0402f30)" style="fill: none; stroke: #000000; stroke-linecap: square"/>
   </g>
   <g id="line2d_92">
    <path d="M 619.443125 106.013826 
L 633.862125 106.013826 
" clip-path="url(#p8ea0402f30)" style="fill: none; stroke: #000000; stroke-linecap: square"/>
   </g>
   <g id="line2d_93">
    <g clip-path="url(#p8ea0402f30)">
     <use xlink:href="#m148620f209" x="626.652625" y="125.201539" style="fill-opacity: 0; stroke: #000000"/>
     <use xlink:href="#m148620f209" x="626.652625" y="73.312476" style="fill-opacity: 0; stroke: #000000"/>
    </g>
   </g>
   <g id="line2d_94">
    <path d="M 381.529625 95.233702 
L 410.367625 95.233702 
" clip-path="url(#p8ea0402f30)" style="fill: none; stroke: #ff7f0e"/>
   </g>
   <g id="line2d_95">
    <path d="M 439.205625 107.618689 
L 468.043625 107.618689 
" clip-path="url(#p8ea0402f30)" style="fill: none; stroke: #ff7f0e"/>
   </g>
   <g id="line2d_96">
    <path d="M 496.881625 138.086162 
L 525.719625 138.086162 
" clip-path="url(#p8ea0402f30)" style="fill: none; stroke: #ff7f0e"/>
   </g>
   <g id="line2d_97">
    <path d="M 554.557625 132.853353 
L 583.395625 132.853353 
" clip-path="url(#p8ea0402f30)" style="fill: none; stroke: #ff7f0e"/>
   </g>
   <g id="line2d_98">
    <path d="M 612.233625 106.426659 
L 641.071625 106.426659 
" clip-path="url(#p8ea0402f30)" style="fill: none; stroke: #ff7f0e"/>
   </g>
   <g id="patch_18">
    <path d="M 367.110625 316.220805 
L 367.110625 54.24 
" style="fill: none; stroke: #000000; stroke-width: 0.8; stroke-linejoin: miter; stroke-linecap: square"/>
   </g>
   <g id="patch_19">
    <path d="M 655.490625 316.220805 
L 655.490625 54.24 
" style="fill: none; stroke: #000000; stroke-width: 0.8; stroke-linejoin: miter; stroke-linecap: square"/>
   </g>
   <g id="patch_20">
    <path d="M 367.110625 316.220805 
L 655.490625 316.220805 
" style="fill: none; stroke: #000000; stroke-width: 0.8; stroke-linejoin: miter; stroke-linecap: square"/>
   </g>
   <g id="patch_21">
    <path d="M 367.110625 54.24 
L 655.490625 54.24 
" style="fill: none; stroke: #000000; stroke-width: 0.8; stroke-linejoin: miter; stroke-linecap: square"/>
   </g>
   <g id="text_26">
    <!-- Balanced Accuracy -->
    <g transform="translate(455.21825 48.24) scale(0.144 -0.144)">
     <defs>
      <path id="LinLibertine-61" d="M 1875 1491 
L 1369 1356 
Q 759 1203 763 653 
Q 763 481 880 339 
Q 997 197 1222 197 
Q 1447 197 1784 475 
Q 1875 538 1875 641 
L 1875 1491 
z
M 1875 306 
L 1863 306 
L 1734 206 
Q 1522 41 1387 -11 
Q 1253 -63 1038 -63 
Q 672 -63 451 103 
Q 231 269 231 628 
Q 231 947 522 1190 
Q 813 1434 1288 1556 
L 1838 1691 
Q 1875 1703 1875 1766 
Q 1875 2597 1356 2597 
Q 1144 2597 984 2530 
Q 825 2463 825 2328 
Q 825 2238 838 2203 
Q 856 2166 856 2088 
Q 856 2016 779 1945 
Q 703 1875 575 1875 
Q 350 1875 353 2100 
Q 353 2363 686 2586 
Q 1019 2809 1409 2809 
Q 2375 2809 2375 1728 
L 2375 775 
Q 2375 591 2384 494 
Q 2394 397 2455 314 
Q 2516 231 2631 231 
Q 2709 231 2765 281 
Q 2822 331 2828 331 
Q 2847 331 2880 293 
Q 2913 256 2913 225 
Q 2913 206 2845 139 
Q 2778 72 2643 4 
Q 2509 -63 2369 -63 
Q 1984 -66 1875 306 
z
" transform="scale(0.015625)"/>
      <path id="LinLibertine-6c" d="M 609 781 
L 609 3578 
Q 609 3784 598 3886 
Q 588 3988 517 4036 
Q 447 4084 409 4087 
Q 372 4091 197 4103 
Q 125 4175 159 4294 
Q 728 4338 1056 4469 
Q 1141 4469 1141 4403 
Q 1116 4147 1113 3731 
L 1113 781 
Q 1113 397 1194 305 
Q 1275 213 1575 197 
Q 1600 166 1600 89 
Q 1600 13 1575 -13 
Q 1025 0 863 0 
Q 684 0 147 -13 
Q 116 13 116 89 
Q 116 166 147 197 
Q 447 209 528 303 
Q 609 397 609 781 
z
" transform="scale(0.015625)"/>
      <path id="LinLibertine-63" d="M 2547 581 
Q 2322 209 2073 73 
Q 1825 -63 1503 -63 
Q 909 -63 573 317 
Q 238 697 238 1331 
Q 238 1978 641 2393 
Q 1044 2809 1550 2809 
Q 2003 2809 2265 2640 
Q 2528 2472 2528 2203 
Q 2528 2069 2428 1994 
Q 2328 1919 2216 1919 
Q 1997 1919 1972 2150 
Q 1959 2291 1929 2370 
Q 1900 2450 1798 2523 
Q 1697 2597 1516 2597 
Q 1197 2597 992 2294 
Q 788 1991 788 1472 
Q 788 922 1038 586 
Q 1288 250 1644 250 
Q 2084 250 2413 672 
Q 2516 659 2547 581 
z
" transform="scale(0.015625)"/>
      <path id="LinLibertine-65" d="M 794 1806 
L 1953 1825 
Q 2050 1825 2047 1913 
Q 2047 2278 1890 2431 
Q 1734 2584 1516 2584 
Q 1431 2584 1350 2562 
Q 1269 2541 1150 2470 
Q 1031 2400 934 2228 
Q 838 2056 794 1806 
z
M 2472 594 
Q 2581 588 2606 494 
Q 2178 -63 1516 -63 
Q 881 -63 538 347 
Q 238 694 238 1294 
Q 238 1972 644 2384 
Q 1050 2797 1516 2797 
Q 2597 2797 2597 1684 
Q 2597 1575 2478 1575 
L 775 1588 
Q 775 1050 978 709 
Q 1259 250 1678 250 
Q 1947 250 2117 326 
Q 2288 403 2472 594 
z
" transform="scale(0.015625)"/>
      <path id="LinLibertine-64" d="M 2209 794 
L 2209 2009 
Q 2209 2156 2189 2217 
Q 2169 2278 2100 2356 
Q 1903 2588 1581 2584 
Q 1197 2584 984 2266 
Q 800 2003 800 1416 
Q 800 853 1011 545 
Q 1222 238 1503 238 
Q 1753 238 2106 544 
Q 2209 634 2209 794 
z
M 2138 322 
Q 1669 -63 1338 -63 
Q 831 -63 540 314 
Q 250 691 250 1300 
Q 250 1984 691 2425 
Q 1094 2809 1650 2809 
Q 1747 2809 1862 2781 
Q 1978 2753 2061 2726 
Q 2144 2700 2150 2700 
Q 2206 2700 2209 2759 
L 2209 3578 
Q 2209 3784 2198 3886 
Q 2188 3988 2117 4036 
Q 2047 4084 2009 4087 
Q 1972 4091 1797 4103 
Q 1725 4175 1759 4294 
Q 2328 4338 2656 4469 
Q 2741 4469 2741 4403 
Q 2716 4147 2713 3731 
L 2713 831 
Q 2713 581 2800 486 
Q 2888 391 3181 366 
Q 3213 334 3213 276 
Q 3213 219 3181 191 
Q 2644 128 2406 -63 
Q 2334 -81 2284 -63 
Q 2213 163 2216 313 
Q 2216 328 2208 336 
Q 2200 344 2187 344 
Q 2175 344 2162 337 
Q 2150 331 2138 322 
z
" transform="scale(0.015625)"/>
      <path id="LinLibertine-75" d="M 1388 -63 
Q 947 -63 755 182 
Q 563 428 563 806 
L 563 2034 
Q 563 2334 483 2431 
Q 403 2528 166 2547 
Q 141 2572 141 2648 
Q 141 2725 166 2759 
Q 641 2747 819 2747 
Q 978 2747 1044 2759 
Q 1094 2759 1094 2719 
Q 1069 2250 1069 2059 
L 1069 897 
Q 1069 519 1225 378 
Q 1381 238 1581 238 
Q 1869 238 2222 544 
Q 2325 634 2322 794 
L 2322 2028 
Q 2322 2334 2245 2434 
Q 2169 2534 1925 2547 
Q 1894 2572 1894 2648 
Q 1894 2725 1925 2759 
Q 2400 2747 2578 2747 
Q 2738 2747 2803 2759 
Q 2853 2759 2853 2719 
Q 2828 2250 2828 2059 
L 2828 831 
Q 2828 581 2915 486 
Q 3003 391 3297 366 
Q 3328 334 3328 276 
Q 3328 219 3297 191 
Q 2759 128 2522 -63 
Q 2450 -81 2400 -63 
Q 2328 169 2328 313 
Q 2328 384 2253 319 
Q 1784 -63 1388 -63 
z
" transform="scale(0.015625)"/>
      <path id="LinLibertine-72" d="M 1147 2291 
Q 1147 2259 1156 2246 
Q 1166 2234 1197 2278 
Q 1325 2497 1514 2653 
Q 1703 2809 1906 2809 
Q 2091 2809 2191 2711 
Q 2291 2613 2291 2503 
Q 2291 2381 2198 2281 
Q 2106 2181 1991 2181 
Q 1947 2181 1901 2204 
Q 1856 2228 1834 2250 
Q 1813 2272 1777 2314 
Q 1741 2356 1728 2369 
Q 1684 2413 1594 2413 
Q 1516 2413 1300 2100 
Q 1147 1869 1147 1672 
L 1147 781 
Q 1147 397 1233 311 
Q 1319 225 1672 197 
Q 1703 166 1703 89 
Q 1703 13 1672 -13 
Q 1122 0 897 0 
Q 706 0 166 -13 
Q 141 13 141 89 
Q 141 166 166 197 
Q 478 216 559 306 
Q 641 397 641 781 
L 641 2028 
Q 641 2297 567 2367 
Q 494 2438 225 2463 
Q 188 2572 213 2644 
Q 713 2706 1019 2828 
Q 1069 2828 1094 2778 
Q 1147 2663 1147 2291 
z
" transform="scale(0.015625)"/>
      <path id="LinLibertine-79" d="M 1306 -1025 
Q 1050 -1484 684 -1484 
Q 556 -1484 470 -1417 
Q 384 -1350 384 -1247 
Q 384 -1163 464 -1067 
Q 544 -972 666 -972 
Q 697 -972 751 -981 
Q 806 -991 850 -991 
Q 1069 -991 1172 -806 
Q 1325 -494 1422 -219 
Q 1500 0 1331 384 
L 606 2069 
Q 513 2284 455 2371 
Q 397 2459 323 2496 
Q 250 2534 103 2547 
Q 78 2572 78 2648 
Q 78 2725 103 2759 
Q 359 2747 622 2747 
Q 872 2747 1344 2759 
Q 1369 2728 1369 2650 
Q 1369 2572 1344 2547 
Q 1231 2538 1167 2517 
Q 1103 2497 1072 2473 
Q 1041 2450 1045 2395 
Q 1050 2341 1065 2298 
Q 1081 2256 1119 2166 
Q 1128 2144 1134 2131 
L 1703 800 
Q 1722 753 1742 731 
Q 1763 709 1781 711 
Q 1800 713 1819 733 
Q 1838 753 1856 794 
L 2491 2259 
Q 2563 2413 2469 2470 
Q 2375 2528 2181 2547 
Q 2150 2572 2150 2648 
Q 2150 2725 2181 2759 
Q 2656 2747 2766 2747 
Q 2900 2747 3219 2759 
Q 3250 2728 3250 2650 
Q 3250 2572 3219 2547 
Q 3053 2534 2915 2412 
Q 2778 2291 2700 2138 
Q 2291 1281 1569 -475 
Q 1434 -794 1306 -1025 
z
" transform="scale(0.015625)"/>
     </defs>
     <use xlink:href="#LinLibertine-42"/>
     <use xlink:href="#LinLibertine-61" transform="translate(58.789062 0)"/>
     <use xlink:href="#LinLibertine-6c" transform="translate(104.443359 0)"/>
     <use xlink:href="#LinLibertine-61" transform="translate(130.810547 0)"/>
     <use xlink:href="#LinLibertine-6e" transform="translate(176.464844 0)"/>
     <use xlink:href="#LinLibertine-63" transform="translate(230.664062 0)"/>
     <use xlink:href="#LinLibertine-65" transform="translate(273.4375 0)"/>
     <use xlink:href="#LinLibertine-64" transform="translate(318.115234 0)"/>
     <use xlink:href="#LinLibertine-20" transform="translate(368.701172 0)"/>
     <use xlink:href="#LinLibertine-41" transform="translate(393.701172 0)"/>
     <use xlink:href="#LinLibertine-63" transform="translate(463.183594 0)"/>
     <use xlink:href="#LinLibertine-63" transform="translate(505.957031 0)"/>
     <use xlink:href="#LinLibertine-75" transform="translate(548.730469 0)"/>
     <use xlink:href="#LinLibertine-72" transform="translate(601.806641 0)"/>
     <use xlink:href="#LinLibertine-61" transform="translate(638.964844 0)"/>
     <use xlink:href="#LinLibertine-63" transform="translate(684.619141 0)"/>
     <use xlink:href="#LinLibertine-79" transform="translate(727.392578 0)"/>
    </g>
   </g>
  </g>
  <g id="axes_3">
   <g id="patch_22">
    <path d="M 700.650625 316.220805 
L 989.030625 316.220805 
L 989.030625 54.24 
L 700.650625 54.24 
z
" style="fill: #ffffff"/>
   </g>
   <g id="matplotlib.axis_5">
    <g id="xtick_11">
     <g id="line2d_99">
      <g>
       <use xlink:href="#m9fdcd78534" x="729.488625" y="316.220805" style="stroke: #000000; stroke-width: 0.8"/>
      </g>
     </g>
     <g id="text_27">
      <!-- SVM RBF -->
      <g transform="translate(707.740212 343.356054) rotate(-15) scale(0.12 -0.12)">
       <use xlink:href="#LinLibertine-53"/>
       <use xlink:href="#LinLibertine-56" transform="translate(48.486328 0)"/>
       <use xlink:href="#LinLibertine-4d" transform="translate(113.671875 0)"/>
       <use xlink:href="#LinLibertine-20" transform="translate(197.558594 0)"/>
       <use xlink:href="#LinLibertine-52" transform="translate(222.558594 0)"/>
       <use xlink:href="#LinLibertine-42" transform="translate(281.25 0)"/>
       <use xlink:href="#LinLibertine-46" transform="translate(340.039062 0)"/>
      </g>
     </g>
    </g>
    <g id="xtick_12">
     <g id="line2d_100">
      <g>
       <use xlink:href="#m9fdcd78534" x="787.164625" y="316.220805" style="stroke: #000000; stroke-width: 0.8"/>
      </g>
     </g>
     <g id="text_28">
      <!-- SVM Lin -->
      <g transform="translate(767.227323 342.385483) rotate(-15) scale(0.12 -0.12)">
       <use xlink:href="#LinLibertine-53"/>
       <use xlink:href="#LinLibertine-56" transform="translate(48.486328 0)"/>
       <use xlink:href="#LinLibertine-4d" transform="translate(113.671875 0)"/>
       <use xlink:href="#LinLibertine-20" transform="translate(197.558594 0)"/>
       <use xlink:href="#LinLibertine-4c" transform="translate(222.558594 0)"/>
       <use xlink:href="#LinLibertine-69" transform="translate(275.146484 0)"/>
       <use xlink:href="#LinLibertine-6e" transform="translate(302.246094 0)"/>
      </g>
     </g>
    </g>
    <g id="xtick_13">
     <g id="line2d_101">
      <g>
       <use xlink:href="#m9fdcd78534" x="844.840625" y="316.220805" style="stroke: #000000; stroke-width: 0.8"/>
      </g>
     </g>
     <g id="text_29">
      <!-- RF -->
      <g transform="translate(839.398549 334.617514) rotate(-15) scale(0.12 -0.12)">
       <use xlink:href="#LinLibertine-52"/>
       <use xlink:href="#LinLibertine-46" transform="translate(58.691406 0)"/>
      </g>
     </g>
    </g>
    <g id="xtick_14">
     <g id="line2d_102">
      <g>
       <use xlink:href="#m9fdcd78534" x="902.516625" y="316.220805" style="stroke: #000000; stroke-width: 0.8"/>
      </g>
     </g>
     <g id="text_30">
      <!-- GB -->
      <g transform="translate(895.803149 335.298856) rotate(-15) scale(0.12 -0.12)">
       <use xlink:href="#LinLibertine-47"/>
       <use xlink:href="#LinLibertine-42" transform="translate(69.482422 0)"/>
      </g>
     </g>
    </g>
    <g id="xtick_15">
     <g id="line2d_103">
      <g>
       <use xlink:href="#m9fdcd78534" x="960.192625" y="316.220805" style="stroke: #000000; stroke-width: 0.8"/>
      </g>
     </g>
     <g id="text_31">
      <!-- LR -->
      <g transform="translate(954.464394 334.770865) rotate(-15) scale(0.12 -0.12)">
       <use xlink:href="#LinLibertine-4c"/>
       <use xlink:href="#LinLibertine-52" transform="translate(52.587891 0)"/>
      </g>
     </g>
    </g>
   </g>
   <g id="matplotlib.axis_6">
    <g id="ytick_15">
     <g id="line2d_104">
      <path d="M 700.650625 287.694006 
L 989.030625 287.694006 
" clip-path="url(#p79d12c7d81)" style="fill: none; stroke: #b0b0b0; stroke-opacity: 0.3; stroke-width: 0.8; stroke-linecap: square"/>
     </g>
     <g id="line2d_105">
      <g>
       <use xlink:href="#m9b54281444" x="700.650625" y="287.694006" style="stroke: #000000; stroke-width: 0.8"/>
      </g>
     </g>
     <g id="text_32">
      <!-- 0.960 -->
      <g transform="translate(668.701875 291.883694) scale(0.12 -0.12)">
       <use xlink:href="#LinLibertine-30"/>
       <use xlink:href="#LinLibertine-2e" transform="translate(46.484375 0)"/>
       <use xlink:href="#LinLibertine-39" transform="translate(68.457031 0)"/>
       <use xlink:href="#LinLibertine-36" transform="translate(114.941406 0)"/>
       <use xlink:href="#LinLibertine-30" transform="translate(161.425781 0)"/>
      </g>
     </g>
    </g>
    <g id="ytick_16">
     <g id="line2d_106">
      <path d="M 700.650625 258.512256 
L 989.030625 258.512256 
" clip-path="url(#p79d12c7d81)" style="fill: none; stroke: #b0b0b0; stroke-opacity: 0.3; stroke-width: 0.8; stroke-linecap: square"/>
     </g>
     <g id="line2d_107">
      <g>
       <use xlink:href="#m9b54281444" x="700.650625" y="258.512256" style="stroke: #000000; stroke-width: 0.8"/>
      </g>
     </g>
     <g id="text_33">
      <!-- 0.965 -->
      <g transform="translate(668.701875 262.701943) scale(0.12 -0.12)">
       <defs>
        <path id="LinLibertine-35" d="M 2041 1209 
Q 2041 1709 1836 1945 
Q 1631 2181 1300 2181 
Q 897 2181 488 2028 
L 703 3872 
Q 1075 3841 1394 3841 
Q 1778 3841 2444 3909 
L 2491 3884 
L 2388 3450 
Q 1991 3413 1716 3413 
Q 1497 3413 966 3469 
L 838 2400 
Q 1100 2503 1466 2503 
Q 1984 2503 2298 2158 
Q 2613 1813 2613 1325 
Q 2613 716 2231 322 
Q 1850 -72 1253 -72 
Q 959 -72 653 76 
Q 347 225 347 409 
Q 347 506 420 576 
Q 494 647 588 647 
Q 759 647 916 441 
Q 922 428 953 387 
Q 984 347 998 326 
Q 1013 306 1044 275 
Q 1075 244 1100 228 
Q 1125 213 1164 189 
Q 1203 166 1245 159 
Q 1288 153 1338 153 
Q 1631 153 1836 458 
Q 2041 763 2041 1209 
z
" transform="scale(0.015625)"/>
       </defs>
       <use xlink:href="#LinLibertine-30"/>
       <use xlink:href="#LinLibertine-2e" transform="translate(46.484375 0)"/>
       <use xlink:href="#LinLibertine-39" transform="translate(68.457031 0)"/>
       <use xlink:href="#LinLibertine-36" transform="translate(114.941406 0)"/>
       <use xlink:href="#LinLibertine-35" transform="translate(161.425781 0)"/>
      </g>
     </g>
    </g>
    <g id="ytick_17">
     <g id="line2d_108">
      <path d="M 700.650625 229.330505 
L 989.030625 229.330505 
" clip-path="url(#p79d12c7d81)" style="fill: none; stroke: #b0b0b0; stroke-opacity: 0.3; stroke-width: 0.8; stroke-linecap: square"/>
     </g>
     <g id="line2d_109">
      <g>
       <use xlink:href="#m9b54281444" x="700.650625" y="229.330505" style="stroke: #000000; stroke-width: 0.8"/>
      </g>
     </g>
     <g id="text_34">
      <!-- 0.970 -->
      <g transform="translate(668.701875 233.520192) scale(0.12 -0.12)">
       <use xlink:href="#LinLibertine-30"/>
       <use xlink:href="#LinLibertine-2e" transform="translate(46.484375 0)"/>
       <use xlink:href="#LinLibertine-39" transform="translate(68.457031 0)"/>
       <use xlink:href="#LinLibertine-37" transform="translate(114.941406 0)"/>
       <use xlink:href="#LinLibertine-30" transform="translate(161.425781 0)"/>
      </g>
     </g>
    </g>
    <g id="ytick_18">
     <g id="line2d_110">
      <path d="M 700.650625 200.148754 
L 989.030625 200.148754 
" clip-path="url(#p79d12c7d81)" style="fill: none; stroke: #b0b0b0; stroke-opacity: 0.3; stroke-width: 0.8; stroke-linecap: square"/>
     </g>
     <g id="line2d_111">
      <g>
       <use xlink:href="#m9b54281444" x="700.650625" y="200.148754" style="stroke: #000000; stroke-width: 0.8"/>
      </g>
     </g>
     <g id="text_35">
      <!-- 0.975 -->
      <g transform="translate(668.701875 204.338441) scale(0.12 -0.12)">
       <use xlink:href="#LinLibertine-30"/>
       <use xlink:href="#LinLibertine-2e" transform="translate(46.484375 0)"/>
       <use xlink:href="#LinLibertine-39" transform="translate(68.457031 0)"/>
       <use xlink:href="#LinLibertine-37" transform="translate(114.941406 0)"/>
       <use xlink:href="#LinLibertine-35" transform="translate(161.425781 0)"/>
      </g>
     </g>
    </g>
    <g id="ytick_19">
     <g id="line2d_112">
      <path d="M 700.650625 170.967003 
L 989.030625 170.967003 
" clip-path="url(#p79d12c7d81)" style="fill: none; stroke: #b0b0b0; stroke-opacity: 0.3; stroke-width: 0.8; stroke-linecap: square"/>
     </g>
     <g id="line2d_113">
      <g>
       <use xlink:href="#m9b54281444" x="700.650625" y="170.967003" style="stroke: #000000; stroke-width: 0.8"/>
      </g>
     </g>
     <g id="text_36">
      <!-- 0.980 -->
      <g transform="translate(668.701875 175.156691) scale(0.12 -0.12)">
       <use xlink:href="#LinLibertine-30"/>
       <use xlink:href="#LinLibertine-2e" transform="translate(46.484375 0)"/>
       <use xlink:href="#LinLibertine-39" transform="translate(68.457031 0)"/>
       <use xlink:href="#LinLibertine-38" transform="translate(114.941406 0)"/>
       <use xlink:href="#LinLibertine-30" transform="translate(161.425781 0)"/>
      </g>
     </g>
    </g>
    <g id="ytick_20">
     <g id="line2d_114">
      <path d="M 700.650625 141.785252 
L 989.030625 141.785252 
" clip-path="url(#p79d12c7d81)" style="fill: none; stroke: #b0b0b0; stroke-opacity: 0.3; stroke-width: 0.8; stroke-linecap: square"/>
     </g>
     <g id="line2d_115">
      <g>
       <use xlink:href="#m9b54281444" x="700.650625" y="141.785252" style="stroke: #000000; stroke-width: 0.8"/>
      </g>
     </g>
     <g id="text_37">
      <!-- 0.985 -->
      <g transform="translate(668.701875 145.97494) scale(0.12 -0.12)">
       <use xlink:href="#LinLibertine-30"/>
       <use xlink:href="#LinLibertine-2e" transform="translate(46.484375 0)"/>
       <use xlink:href="#LinLibertine-39" transform="translate(68.457031 0)"/>
       <use xlink:href="#LinLibertine-38" transform="translate(114.941406 0)"/>
       <use xlink:href="#LinLibertine-35" transform="translate(161.425781 0)"/>
      </g>
     </g>
    </g>
    <g id="ytick_21">
     <g id="line2d_116">
      <path d="M 700.650625 112.603502 
L 989.030625 112.603502 
" clip-path="url(#p79d12c7d81)" style="fill: none; stroke: #b0b0b0; stroke-opacity: 0.3; stroke-width: 0.8; stroke-linecap: square"/>
     </g>
     <g id="line2d_117">
      <g>
       <use xlink:href="#m9b54281444" x="700.650625" y="112.603502" style="stroke: #000000; stroke-width: 0.8"/>
      </g>
     </g>
     <g id="text_38">
      <!-- 0.990 -->
      <g transform="translate(668.701875 116.793189) scale(0.12 -0.12)">
       <use xlink:href="#LinLibertine-30"/>
       <use xlink:href="#LinLibertine-2e" transform="translate(46.484375 0)"/>
       <use xlink:href="#LinLibertine-39" transform="translate(68.457031 0)"/>
       <use xlink:href="#LinLibertine-39" transform="translate(114.941406 0)"/>
       <use xlink:href="#LinLibertine-30" transform="translate(161.425781 0)"/>
      </g>
     </g>
    </g>
    <g id="ytick_22">
     <g id="line2d_118">
      <path d="M 700.650625 83.421751 
L 989.030625 83.421751 
" clip-path="url(#p79d12c7d81)" style="fill: none; stroke: #b0b0b0; stroke-opacity: 0.3; stroke-width: 0.8; stroke-linecap: square"/>
     </g>
     <g id="line2d_119">
      <g>
       <use xlink:href="#m9b54281444" x="700.650625" y="83.421751" style="stroke: #000000; stroke-width: 0.8"/>
      </g>
     </g>
     <g id="text_39">
      <!-- 0.995 -->
      <g transform="translate(668.701875 87.611438) scale(0.12 -0.12)">
       <use xlink:href="#LinLibertine-30"/>
       <use xlink:href="#LinLibertine-2e" transform="translate(46.484375 0)"/>
       <use xlink:href="#LinLibertine-39" transform="translate(68.457031 0)"/>
       <use xlink:href="#LinLibertine-39" transform="translate(114.941406 0)"/>
       <use xlink:href="#LinLibertine-35" transform="translate(161.425781 0)"/>
      </g>
     </g>
    </g>
    <g id="ytick_23">
     <g id="line2d_120">
      <path d="M 700.650625 54.24 
L 989.030625 54.24 
" clip-path="url(#p79d12c7d81)" style="fill: none; stroke: #b0b0b0; stroke-opacity: 0.3; stroke-width: 0.8; stroke-linecap: square"/>
     </g>
     <g id="line2d_121">
      <g>
       <use xlink:href="#m9b54281444" x="700.650625" y="54.24" style="stroke: #000000; stroke-width: 0.8"/>
      </g>
     </g>
     <g id="text_40">
      <!-- 1.000 -->
      <g transform="translate(668.701875 58.429687) scale(0.12 -0.12)">
       <use xlink:href="#LinLibertine-31"/>
       <use xlink:href="#LinLibertine-2e" transform="translate(46.484375 0)"/>
       <use xlink:href="#LinLibertine-30" transform="translate(68.457031 0)"/>
       <use xlink:href="#LinLibertine-30" transform="translate(114.941406 0)"/>
       <use xlink:href="#LinLibertine-30" transform="translate(161.425781 0)"/>
      </g>
     </g>
    </g>
   </g>
   <g id="patch_23">
    <path d="M 715.069625 165.454626 
L 743.907625 165.454626 
L 743.907625 146.112952 
L 715.069625 146.112952 
L 715.069625 165.454626 
z
" clip-path="url(#p79d12c7d81)" style="fill: #4c72b0; opacity: 0.7; stroke: #000000; stroke-linejoin: miter"/>
   </g>
   <g id="line2d_122">
    <path d="M 729.488625 165.454626 
L 729.488625 175.52741 
" clip-path="url(#p79d12c7d81)" style="fill: none; stroke: #000000; stroke-linecap: square"/>
   </g>
   <g id="line2d_123">
    <path d="M 729.488625 146.112952 
L 729.488625 136.170597 
" clip-path="url(#p79d12c7d81)" style="fill: none; stroke: #000000; stroke-linecap: square"/>
   </g>
   <g id="line2d_124">
    <path d="M 722.279125 175.52741 
L 736.698125 175.52741 
" clip-path="url(#p79d12c7d81)" style="fill: none; stroke: #000000; stroke-linecap: square"/>
   </g>
   <g id="line2d_125">
    <path d="M 722.279125 136.170597 
L 736.698125 136.170597 
" clip-path="url(#p79d12c7d81)" style="fill: none; stroke: #000000; stroke-linecap: square"/>
   </g>
   <g id="line2d_126"/>
   <g id="patch_24">
    <path d="M 772.745625 180.27414 
L 801.583625 180.27414 
L 801.583625 155.615809 
L 772.745625 155.615809 
L 772.745625 180.27414 
z
" clip-path="url(#p79d12c7d81)" style="fill: #dd8452; opacity: 0.7; stroke: #000000; stroke-linejoin: miter"/>
   </g>
   <g id="line2d_127">
    <path d="M 787.164625 180.27414 
L 787.164625 185.230403 
" clip-path="url(#p79d12c7d81)" style="fill: none; stroke: #000000; stroke-linecap: square"/>
   </g>
   <g id="line2d_128">
    <path d="M 787.164625 155.615809 
L 787.164625 146.112952 
" clip-path="url(#p79d12c7d81)" style="fill: none; stroke: #000000; stroke-linecap: square"/>
   </g>
   <g id="line2d_129">
    <path d="M 779.955125 185.230403 
L 794.374125 185.230403 
" clip-path="url(#p79d12c7d81)" style="fill: none; stroke: #000000; stroke-linecap: square"/>
   </g>
   <g id="line2d_130">
    <path d="M 779.955125 146.112952 
L 794.374125 146.112952 
" clip-path="url(#p79d12c7d81)" style="fill: none; stroke: #000000; stroke-linecap: square"/>
   </g>
   <g id="line2d_131"/>
   <g id="patch_25">
    <path d="M 830.421625 120.995639 
L 859.259625 120.995639 
L 859.259625 116.481634 
L 830.421625 116.481634 
L 830.421625 120.995639 
z
" clip-path="url(#p79d12c7d81)" style="fill: #55a868; opacity: 0.7; stroke: #000000; stroke-linejoin: miter"/>
   </g>
   <g id="line2d_132">
    <path d="M 844.840625 120.995639 
L 844.840625 120.995639 
" clip-path="url(#p79d12c7d81)" style="fill: none; stroke: #000000; stroke-linecap: square"/>
   </g>
   <g id="line2d_133">
    <path d="M 844.840625 116.481634 
L 844.840625 116.481634 
" clip-path="url(#p79d12c7d81)" style="fill: none; stroke: #000000; stroke-linecap: square"/>
   </g>
   <g id="line2d_134">
    <path d="M 837.631125 120.995639 
L 852.050125 120.995639 
" clip-path="url(#p79d12c7d81)" style="fill: none; stroke: #000000; stroke-linecap: square"/>
   </g>
   <g id="line2d_135">
    <path d="M 837.631125 116.481634 
L 852.050125 116.481634 
" clip-path="url(#p79d12c7d81)" style="fill: none; stroke: #000000; stroke-linecap: square"/>
   </g>
   <g id="line2d_136">
    <g clip-path="url(#p79d12c7d81)">
     <use xlink:href="#m148620f209" x="844.840625" y="140.633341" style="fill-opacity: 0; stroke: #000000"/>
     <use xlink:href="#m148620f209" x="844.840625" y="106.392601" style="fill-opacity: 0; stroke: #000000"/>
    </g>
   </g>
   <g id="patch_26">
    <path d="M 888.097625 130.036755 
L 916.935625 130.036755 
L 916.935625 125.705512 
L 888.097625 125.705512 
L 888.097625 130.036755 
z
" clip-path="url(#p79d12c7d81)" style="fill: #c44e52; opacity: 0.7; stroke: #000000; stroke-linejoin: miter"/>
   </g>
   <g id="line2d_137">
    <path d="M 902.516625 130.036755 
L 902.516625 130.036755 
" clip-path="url(#p79d12c7d81)" style="fill: none; stroke: #000000; stroke-linecap: square"/>
   </g>
   <g id="line2d_138">
    <path d="M 902.516625 125.705512 
L 902.516625 125.705512 
" clip-path="url(#p79d12c7d81)" style="fill: none; stroke: #000000; stroke-linecap: square"/>
   </g>
   <g id="line2d_139">
    <path d="M 895.307125 130.036755 
L 909.726125 130.036755 
" clip-path="url(#p79d12c7d81)" style="fill: none; stroke: #000000; stroke-linecap: square"/>
   </g>
   <g id="line2d_140">
    <path d="M 895.307125 125.705512 
L 909.726125 125.705512 
" clip-path="url(#p79d12c7d81)" style="fill: none; stroke: #000000; stroke-linecap: square"/>
   </g>
   <g id="line2d_141">
    <g clip-path="url(#p79d12c7d81)">
     <use xlink:href="#m148620f209" x="902.516625" y="145.358039" style="fill-opacity: 0; stroke: #000000"/>
     <use xlink:href="#m148620f209" x="902.516625" y="106.648042" style="fill-opacity: 0; stroke: #000000"/>
    </g>
   </g>
   <g id="patch_27">
    <path d="M 945.773625 175.326103 
L 974.611625 175.326103 
L 974.611625 150.549409 
L 945.773625 150.549409 
L 945.773625 175.326103 
z
" clip-path="url(#p79d12c7d81)" style="fill: #8172b2; opacity: 0.7; stroke: #000000; stroke-linejoin: miter"/>
   </g>
   <g id="line2d_142">
    <path d="M 960.192625 175.326103 
L 960.192625 175.326103 
" clip-path="url(#p79d12c7d81)" style="fill: none; stroke: #000000; stroke-linecap: square"/>
   </g>
   <g id="line2d_143">
    <path d="M 960.192625 150.549409 
L 960.192625 131.414878 
" clip-path="url(#p79d12c7d81)" style="fill: none; stroke: #000000; stroke-linecap: square"/>
   </g>
   <g id="line2d_144">
    <path d="M 952.983125 175.326103 
L 967.402125 175.326103 
" clip-path="url(#p79d12c7d81)" style="fill: none; stroke: #000000; stroke-linecap: square"/>
   </g>
   <g id="line2d_145">
    <path d="M 952.983125 131.414878 
L 967.402125 131.414878 
" clip-path="url(#p79d12c7d81)" style="fill: none; stroke: #000000; stroke-linecap: square"/>
   </g>
   <g id="line2d_146"/>
   <g id="line2d_147">
    <path d="M 715.069625 150.549409 
L 743.907625 150.549409 
" clip-path="url(#p79d12c7d81)" style="fill: none; stroke: #ff7f0e"/>
   </g>
   <g id="line2d_148">
    <path d="M 772.745625 170.002317 
L 801.583625 170.002317 
" clip-path="url(#p79d12c7d81)" style="fill: none; stroke: #ff7f0e"/>
   </g>
   <g id="line2d_149">
    <path d="M 830.421625 120.778194 
L 859.259625 120.778194 
" clip-path="url(#p79d12c7d81)" style="fill: none; stroke: #ff7f0e"/>
   </g>
   <g id="line2d_150">
    <path d="M 888.097625 125.939633 
L 916.935625 125.939633 
" clip-path="url(#p79d12c7d81)" style="fill: none; stroke: #ff7f0e"/>
   </g>
   <g id="line2d_151">
    <path d="M 945.773625 160.005818 
L 974.611625 160.005818 
" clip-path="url(#p79d12c7d81)" style="fill: none; stroke: #ff7f0e"/>
   </g>
   <g id="patch_28">
    <path d="M 700.650625 316.220805 
L 700.650625 54.24 
" style="fill: none; stroke: #000000; stroke-width: 0.8; stroke-linejoin: miter; stroke-linecap: square"/>
   </g>
   <g id="patch_29">
    <path d="M 989.030625 316.220805 
L 989.030625 54.24 
" style="fill: none; stroke: #000000; stroke-width: 0.8; stroke-linejoin: miter; stroke-linecap: square"/>
   </g>
   <g id="patch_30">
    <path d="M 700.650625 316.220805 
L 989.030625 316.220805 
" style="fill: none; stroke: #000000; stroke-width: 0.8; stroke-linejoin: miter; stroke-linecap: square"/>
   </g>
   <g id="patch_31">
    <path d="M 700.650625 54.24 
L 989.030625 54.24 
" style="fill: none; stroke: #000000; stroke-width: 0.8; stroke-linejoin: miter; stroke-linecap: square"/>
   </g>
   <g id="text_41">
    <!-- F1 -->
    <g transform="translate(838.0625 48.24) scale(0.144 -0.144)">
     <use xlink:href="#LinLibertine-46"/>
     <use xlink:href="#LinLibertine-31" transform="translate(47.65625 0)"/>
    </g>
   </g>
  </g>
  <g id="text_42">
   <!-- CV Score Distribution per Classifier — raw SBR features -->
   <g transform="translate(349.112188 16.277656) scale(0.13 -0.13)">
    <defs>
     <path id="LinLibertine-6f" d="M 263 1313 
Q 263 1947 616 2363 
Q 997 2809 1619 2809 
Q 2078 2809 2395 2582 
Q 2713 2356 2838 2042 
Q 2963 1728 2963 1369 
Q 2963 700 2547 294 
Q 2181 -66 1606 -63 
Q 966 -63 614 353 
Q 263 769 263 1313 
z
M 1522 2584 
Q 813 2584 813 1459 
Q 813 1253 861 1042 
Q 909 831 1004 626 
Q 1100 422 1279 290 
Q 1459 159 1697 159 
Q 1978 159 2195 390 
Q 2413 622 2413 1166 
Q 2413 1850 2175 2217 
Q 1938 2584 1522 2584 
z
" transform="scale(0.015625)"/>
     <path id="LinLibertine-44" d="M 1222 531 
Q 1222 359 1353 282 
Q 1484 206 1919 206 
Q 2284 206 2565 279 
Q 2847 353 3090 525 
Q 3334 697 3465 1023 
Q 3597 1350 3597 1819 
Q 3597 2209 3501 2567 
Q 3406 2925 3200 3239 
Q 2994 3553 2623 3737 
Q 2253 3922 1759 3922 
Q 1222 3922 1222 3609 
L 1222 531 
z
M 947 4128 
Q 1050 4128 1414 4134 
Q 1778 4141 2003 4141 
Q 2925 4141 3569 3505 
Q 4213 2869 4213 1972 
Q 4213 1409 4017 1001 
Q 3822 594 3498 383 
Q 3175 172 2833 79 
Q 2491 -13 2119 -13 
Q 1734 -13 1376 -6 
Q 1019 0 953 0 
Q 747 0 122 -13 
Q 91 13 91 89 
Q 91 166 122 197 
Q 481 209 579 303 
Q 678 397 678 781 
L 678 3347 
Q 678 3731 579 3823 
Q 481 3916 122 3928 
Q 91 3953 91 4031 
Q 91 4109 122 4141 
Q 763 4128 947 4128 
z
" transform="scale(0.015625)"/>
     <path id="LinLibertine-73" d="M 306 884 
Q 338 916 406 916 
Q 475 916 506 891 
Q 616 438 756 300 
Q 897 147 1209 147 
Q 1416 147 1584 262 
Q 1753 378 1753 594 
Q 1753 806 1622 934 
Q 1491 1063 1100 1222 
Q 716 1381 556 1567 
Q 397 1753 397 2094 
Q 397 2394 665 2601 
Q 934 2809 1300 2809 
Q 1447 2809 1600 2787 
Q 1753 2766 1923 2730 
Q 2094 2694 2138 2688 
Q 2138 2603 2119 2370 
Q 2100 2138 2100 2009 
Q 2069 1978 1997 1978 
Q 1925 1978 1894 2003 
Q 1863 2194 1789 2322 
Q 1716 2450 1616 2504 
Q 1516 2559 1442 2578 
Q 1369 2597 1300 2597 
Q 1128 2597 989 2486 
Q 850 2375 850 2188 
Q 850 2084 884 2003 
Q 919 1922 961 1870 
Q 1003 1819 1103 1764 
Q 1203 1709 1272 1681 
Q 1341 1653 1491 1594 
Q 2241 1309 2241 744 
Q 2241 519 2134 351 
Q 2028 184 1862 98 
Q 1697 13 1536 -25 
Q 1375 -63 1222 -63 
Q 909 -63 641 6 
Q 597 19 513 19 
Q 450 19 353 0 
Q 350 334 306 884 
z
" transform="scale(0.015625)"/>
     <path id="LinLibertine-74" d="M 275 2747 
L 569 2747 
Q 569 2944 567 3086 
Q 566 3228 562 3293 
Q 559 3359 556 3396 
Q 553 3434 551 3453 
Q 550 3472 550 3488 
Q 550 3509 575 3528 
Q 600 3547 629 3556 
Q 659 3566 711 3581 
Q 763 3597 794 3609 
Q 831 3625 890 3656 
Q 950 3688 990 3706 
Q 1031 3725 1050 3725 
Q 1100 3725 1100 3669 
Q 1075 3413 1075 2994 
L 1075 2747 
L 1844 2747 
Q 1894 2747 1894 2706 
L 1894 2578 
Q 1894 2494 1741 2497 
L 1075 2497 
L 1075 878 
Q 1075 566 1120 427 
Q 1166 288 1288 288 
Q 1581 288 1813 469 
Q 1909 463 1925 359 
Q 1547 -63 1063 -63 
Q 569 -63 569 569 
L 569 2497 
L 191 2497 
Q 159 2497 159 2534 
L 159 2619 
Q 159 2747 275 2747 
z
" transform="scale(0.015625)"/>
     <path id="LinLibertine-62" d="M 1113 2322 
Q 1003 2225 1006 2053 
L 1006 453 
Q 1250 153 1466 153 
Q 1906 153 2137 508 
Q 2369 863 2369 1434 
Q 2369 1894 2161 2211 
Q 1953 2528 1656 2528 
Q 1344 2528 1113 2322 
z
M 1069 2522 
Q 1388 2809 1784 2809 
Q 2225 2809 2572 2457 
Q 2919 2106 2919 1550 
Q 2919 834 2476 385 
Q 2034 -63 1503 -63 
Q 1128 -63 941 94 
Q 888 138 852 136 
Q 816 134 766 78 
Q 744 53 711 18 
Q 678 -16 662 -30 
Q 647 -44 616 -78 
Q 525 -78 475 0 
Q 500 122 500 453 
L 500 3578 
Q 500 3784 490 3886 
Q 481 3988 411 4036 
Q 341 4084 302 4087 
Q 263 4091 91 4103 
Q 19 4175 50 4294 
Q 619 4338 947 4469 
Q 1031 4469 1031 4403 
Q 1006 4147 1006 3731 
L 1006 2553 
Q 1006 2466 1069 2522 
z
" transform="scale(0.015625)"/>
     <path id="LinLibertine-70" d="M 1119 2119 
Q 1016 1991 1019 1838 
L 1019 672 
Q 1019 553 1031 492 
Q 1044 431 1072 392 
Q 1100 353 1172 288 
Q 1250 219 1383 186 
Q 1516 153 1625 153 
Q 1881 153 2067 259 
Q 2253 366 2348 547 
Q 2444 728 2486 920 
Q 2528 1113 2528 1331 
Q 2528 1856 2308 2186 
Q 2088 2516 1766 2516 
Q 1631 2516 1439 2397 
Q 1247 2278 1119 2119 
z
M 1019 2356 
Q 1019 2325 1037 2317 
Q 1056 2309 1069 2328 
Q 1478 2809 1947 2809 
Q 2428 2809 2753 2418 
Q 3078 2028 3078 1503 
Q 3078 753 2606 294 
Q 2228 -66 1663 -63 
Q 1350 -63 1106 34 
Q 1056 59 1037 53 
Q 1019 47 1019 -13 
L 1019 -703 
Q 1019 -1088 1105 -1178 
Q 1191 -1269 1544 -1288 
Q 1575 -1319 1575 -1395 
Q 1575 -1472 1544 -1497 
Q 994 -1484 769 -1484 
Q 591 -1484 50 -1497 
Q 25 -1472 25 -1395 
Q 25 -1319 50 -1288 
Q 350 -1275 431 -1181 
Q 513 -1088 513 -703 
L 513 2028 
Q 513 2297 439 2367 
Q 366 2438 97 2463 
Q 59 2572 84 2644 
Q 584 2706 891 2828 
Q 941 2828 966 2778 
Q 1019 2663 1019 2356 
z
" transform="scale(0.015625)"/>
     <path id="LinLibertine-66" d="M 1119 781 
Q 1119 397 1203 308 
Q 1288 219 1625 197 
Q 1650 166 1650 89 
Q 1650 13 1625 -13 
Q 1075 0 872 0 
Q 738 0 197 -13 
Q 166 13 166 89 
Q 166 166 197 197 
Q 472 216 544 306 
Q 616 397 616 781 
L 616 2497 
L 172 2497 
Q 141 2497 141 2534 
L 141 2619 
Q 141 2747 288 2747 
L 616 2747 
L 616 3003 
Q 616 3700 958 4084 
Q 1300 4469 1747 4469 
Q 2131 4469 2322 4331 
Q 2528 4178 2528 4006 
Q 2528 3909 2439 3826 
Q 2350 3744 2266 3744 
Q 2100 3744 2009 3950 
Q 1947 4116 1859 4183 
Q 1772 4250 1625 4250 
Q 1119 4250 1119 3109 
L 1119 2747 
L 1813 2747 
Q 1863 2747 1863 2706 
L 1863 2578 
Q 1863 2494 1716 2497 
L 1119 2497 
L 1119 781 
z
" transform="scale(0.015625)"/>
     <path id="LinLibertine-2014" d="M 313 1522 
Q 222 1522 225 1631 
Q 225 1688 278 1763 
Q 331 1838 391 1838 
L 4384 1838 
Q 4475 1838 4475 1728 
Q 4475 1666 4420 1594 
Q 4366 1522 4306 1522 
L 313 1522 
z
" transform="scale(0.015625)"/>
     <path id="LinLibertine-77" d="M 1300 2547 
Q 1078 2534 1042 2440 
Q 1006 2347 1106 2119 
L 1619 800 
Q 1663 691 1686 666 
Q 1709 641 1731 669 
Q 1753 697 1797 813 
L 2247 1947 
L 2206 2047 
Q 2197 2069 2181 2106 
Q 2134 2228 2107 2284 
Q 2081 2341 2028 2409 
Q 1975 2478 1900 2508 
Q 1825 2538 1716 2547 
Q 1691 2572 1691 2648 
Q 1691 2725 1716 2759 
Q 2191 2747 2278 2747 
Q 2444 2747 2919 2759 
Q 2944 2728 2944 2650 
Q 2944 2572 2919 2547 
Q 2669 2528 2630 2454 
Q 2591 2381 2684 2156 
L 3238 756 
Q 3281 644 3300 638 
Q 3316 631 3338 681 
Q 3341 684 3378 781 
L 3916 2113 
Q 3950 2197 3962 2244 
Q 3975 2291 3975 2353 
Q 3975 2416 3939 2450 
Q 3903 2484 3817 2512 
Q 3731 2541 3591 2547 
Q 3559 2572 3559 2648 
Q 3559 2725 3591 2759 
Q 4066 2747 4256 2747 
Q 4384 2747 4703 2759 
Q 4734 2728 4736 2650 
Q 4738 2572 4703 2547 
Q 4478 2534 4365 2423 
Q 4253 2313 4163 2088 
L 3328 56 
Q 3278 -78 3181 -78 
Q 3084 -78 3028 50 
L 2369 1638 
L 1722 63 
Q 1659 -78 1569 -78 
Q 1472 -78 1416 50 
L 578 2119 
Q 475 2372 384 2448 
Q 294 2525 72 2547 
Q 41 2572 39 2648 
Q 38 2725 72 2759 
Q 403 2747 634 2747 
Q 825 2747 1300 2759 
Q 1331 2728 1331 2650 
Q 1331 2572 1300 2547 
z
" transform="scale(0.015625)"/>
    </defs>
    <use xlink:href="#LinLibertine-43"/>
    <use xlink:href="#LinLibertine-56" transform="translate(64.599609 0)"/>
    <use xlink:href="#LinLibertine-20" transform="translate(129.785156 0)"/>
    <use xlink:href="#LinLibertine-53" transform="translate(154.785156 0)"/>
    <use xlink:href="#LinLibertine-63" transform="translate(203.271484 0)"/>
    <use xlink:href="#LinLibertine-6f" transform="translate(246.044922 0)"/>
    <use xlink:href="#LinLibertine-72" transform="translate(296.435547 0)"/>
    <use xlink:href="#LinLibertine-65" transform="translate(333.59375 0)"/>
    <use xlink:href="#LinLibertine-20" transform="translate(378.271484 0)"/>
    <use xlink:href="#LinLibertine-44" transform="translate(403.271484 0)"/>
    <use xlink:href="#LinLibertine-69" transform="translate(473.339844 0)"/>
    <use xlink:href="#LinLibertine-73" transform="translate(500.439453 0)"/>
    <use xlink:href="#LinLibertine-74" transform="translate(539.404297 0)"/>
    <use xlink:href="#LinLibertine-72" transform="translate(570.996094 0)"/>
    <use xlink:href="#LinLibertine-69" transform="translate(608.154297 0)"/>
    <use xlink:href="#LinLibertine-62" transform="translate(635.253906 0)"/>
    <use xlink:href="#LinLibertine-75" transform="translate(684.521484 0)"/>
    <use xlink:href="#LinLibertine-74" transform="translate(737.597656 0)"/>
    <use xlink:href="#LinLibertine-69" transform="translate(769.189453 0)"/>
    <use xlink:href="#LinLibertine-6f" transform="translate(796.289062 0)"/>
    <use xlink:href="#LinLibertine-6e" transform="translate(846.679688 0)"/>
    <use xlink:href="#LinLibertine-20" transform="translate(900.878906 0)"/>
    <use xlink:href="#LinLibertine-70" transform="translate(925.878906 0)"/>
    <use xlink:href="#LinLibertine-65" transform="translate(977.734375 0)"/>
    <use xlink:href="#LinLibertine-72" transform="translate(1022.412109 0)"/>
    <use xlink:href="#LinLibertine-20" transform="translate(1059.570312 0)"/>
    <use xlink:href="#LinLibertine-43" transform="translate(1084.570312 0)"/>
    <use xlink:href="#LinLibertine-6c" transform="translate(1149.169922 0)"/>
    <use xlink:href="#LinLibertine-61" transform="translate(1175.537109 0)"/>
    <use xlink:href="#LinLibertine-73" transform="translate(1221.191406 0)"/>
    <use xlink:href="#LinLibertine-73" transform="translate(1260.15625 0)"/>
    <use xlink:href="#LinLibertine-69" transform="translate(1299.121094 0)"/>
    <use xlink:href="#LinLibertine-66" transform="translate(1326.220703 0)"/>
    <use xlink:href="#LinLibertine-69" transform="translate(1357.177734 0)"/>
    <use xlink:href="#LinLibertine-65" transform="translate(1384.277344 0)"/>
    <use xlink:href="#LinLibertine-72" transform="translate(1428.955078 0)"/>
    <use xlink:href="#LinLibertine-20" transform="translate(1466.113281 0)"/>
    <use xlink:href="#LinLibertine-2014" transform="translate(1491.113281 0)"/>
    <use xlink:href="#LinLibertine-20" transform="translate(1565.283203 0)"/>
    <use xlink:href="#LinLibertine-72" transform="translate(1590.283203 0)"/>
    <use xlink:href="#LinLibertine-61" transform="translate(1627.441406 0)"/>
    <use xlink:href="#LinLibertine-77" transform="translate(1673.095703 0)"/>
    <use xlink:href="#LinLibertine-20" transform="translate(1747.753906 0)"/>
    <use xlink:href="#LinLibertine-53" transform="translate(1772.753906 0)"/>
    <use xlink:href="#LinLibertine-42" transform="translate(1821.240234 0)"/>
    <use xlink:href="#LinLibertine-52" transform="translate(1880.029297 0)"/>
    <use xlink:href="#LinLibertine-20" transform="translate(1938.720703 0)"/>
    <use xlink:href="#LinLibertine-66" transform="translate(1963.720703 0)"/>
    <use xlink:href="#LinLibertine-65" transform="translate(1994.677734 0)"/>
    <use xlink:href="#LinLibertine-61" transform="translate(2039.355469 0)"/>
    <use xlink:href="#LinLibertine-74" transform="translate(2085.009766 0)"/>
    <use xlink:href="#LinLibertine-75" transform="translate(2116.601562 0)"/>
    <use xlink:href="#LinLibertine-72" transform="translate(2169.677734 0)"/>
    <use xlink:href="#LinLibertine-65" transform="translate(2206.835938 0)"/>
    <use xlink:href="#LinLibertine-73" transform="translate(2251.513672 0)"/>
   </g>
  </g>
 </g>
 <defs>
  <clipPath id="pdf334e7fba">
   <rect x="33.570625" y="54.24" width="288.38" height="261.980805"/>
  </clipPath>
  <clipPath id="p8ea0402f30">
   <rect x="367.110625" y="54.24" width="288.38" height="261.980805"/>
  </clipPath>
  <clipPath id="p79d12c7d81">
   <rect x="700.650625" y="54.24" width="288.38" height="261.980805"/>
  </clipPath>
 </defs>
</svg>
